<?xml version="1.0" encoding="utf-8"?>
<!-- Generator: Adobe Illustrator 27.4.0, SVG Export Plug-In . SVG Version: 6.00 Build 0)  -->
<svg version="1.1" id="Calque_1" xmlns="http://www.w3.org/2000/svg" xmlns:xlink="http://www.w3.org/1999/xlink" x="0px" y="0px"
	 viewBox="0 0 425 475.5" style="enable-background:new 0 0 425 475.5;" xml:space="preserve">
<style type="text/css">
	.st0{fill-rule:evenodd;clip-rule:evenodd;fill:#110000;}
	.st1{fill-rule:evenodd;clip-rule:evenodd;fill:#1D1E1D;}
	.st2{fill-rule:evenodd;clip-rule:evenodd;fill:#3B3C3B;}
	.st3{fill-rule:evenodd;clip-rule:evenodd;fill:#75380D;}
	.st4{fill-rule:evenodd;clip-rule:evenodd;fill:#571A00;}
	.st5{fill-rule:evenodd;clip-rule:evenodd;fill:#00498B;}
	.st6{fill-rule:evenodd;clip-rule:evenodd;fill:#00AEEF;}
	.st7{fill-rule:evenodd;clip-rule:evenodd;fill:#008FD1;}
	.st8{fill-rule:evenodd;clip-rule:evenodd;fill:#1ECCFF;}
	.st9{fill-rule:evenodd;clip-rule:evenodd;fill:#93562B;}
	.st10{fill-rule:evenodd;clip-rule:evenodd;fill:#00022A;}
	.st11{fill-rule:evenodd;clip-rule:evenodd;fill:#004870;}
	.st12{fill-rule:evenodd;clip-rule:evenodd;fill:#00678E;}
	.st13{fill-rule:evenodd;clip-rule:evenodd;fill:#545554;}
	.st14{fill-rule:evenodd;clip-rule:evenodd;fill:#727372;}
</style>
<g>
	<path class="st0" d="M281.5,411.5c-18.7,0-37.3,0-56,0c-18,0-36,0-54,0s-36,0-54,0c0-6.3,0-12.7,0-19c-6,0-12,0-18,0
		c0,6.7,0,13.3,0,20c-6.7,0-13.3,0-20,0c0-12.3,0-24.7,0-37c-6,0-12,0-18,0c0,5.7,0,11.3,0,17c-6.3,0-12.7,0-19,0
		c0-11.3,0-22.7,0-34c-6,0-12,0-18,0c0-19,0-38,0-57c-6,0-12,0-18,0c0-55,0-110,0-165c6.3,0,12.7,0,19,0c0-12.3,0-24.7,0-37
		c5.7,0,11.3,0,17,0c0-5.7,0-11.3,0-17c6,0,12,0,18,0c0-6.7,0-13.3,0-20c6,0,12,0,18,0c0-6,0-12,0-18c12.3,0,24.7,0,37,0
		c0-6,0-12,0-18c55.7,0,111.3,0,167,0c0,5.7,0,11.3,0,17c12.3,0,24.7,0,37,0c0,6.7,0,13.3,0,20c6,0,12,0,18,0c0,6.3,0,12.7,0,19
		c6,0,12,0,18,0c0,5.7,0,11.3,0,17c6,0,12,0,18,0c0,12.3,0,24.7,0,37c6,0,12,0,18,0c0,55.3,0,110.7,0,166c-6.3,0-12.7,0-19,0
		c0,18.3,0,36.7,0,55c-6,0-12,0-18,0c0,12,0,24,0,36c-6.3,0-12.7,0-19,0c0-6,0-12,0-18c-5.7,0-11.3,0-17,0c0,12.3,0,24.7,0,37
		c-6.3,0-12.7,0-19,0c0-6,0-12,0-18c-6,0-12,0-18,0C281.5,400.2,281.5,405.8,281.5,411.5z"/>
</g>
<g>
	<path class="st1" d="M189.5,64.5c-11.7,0-23.3,0-35,0c0,5.7,0,11.3,0,17c-6.7,0-13.3,0-20,0c0-12,0-24,0-36c18.3,0,36.7,0,55,0
		C189.5,51.8,189.5,58.2,189.5,64.5z"/>
</g>
<g>
	<path class="st1" d="M262.5,65.5c-5.7,0-11.3,0-17,0c-6,0-12,0-18,0c0-6.7,0-13.3,0-20c11.7,0,23.3,0,35,0
		C262.5,52.2,262.5,58.8,262.5,65.5z"/>
</g>
<g>
	<path class="st2" d="M189.5,64.5c0,6.7,0,13.3,0,20c6.3,0,12.7,0,19,0c0,11,0,22,0,33c-6.3,0-12.7,0-19,0c0-5.3,0-10.7,0-16
		c-6,0-12,0-18,0c0-0.3,0-0.7,0-1c0-6.3,0-12.7,0-19c-5.7,0-11.3,0-17,0c0-5.7,0-11.3,0-17C166.2,64.5,177.8,64.5,189.5,64.5z"/>
</g>
<g>
	<path class="st1" d="M189.5,64.5c6.3,0,12.7,0,19,0c0,6.7,0,13.3,0,20c-6.3,0-12.7,0-19,0C189.5,77.8,189.5,71.2,189.5,64.5z"/>
</g>
<g>
	<path class="st2" d="M245.5,65.5c5.7,0,11.3,0,17,0c0.3,0,0.7,0,1,0c0,17.7,0,35.3,0,53c-6,0-12,0-18,0
		C245.5,100.8,245.5,83.2,245.5,65.5z"/>
</g>
<g>
	<path class="st1" d="M263.5,65.5c6,0,12,0,18,0c0,23.3,0,46.7,0,70c-12,0-24,0-36,0c0-5.7,0-11.3,0-17c6,0,12,0,18,0
		C263.5,100.8,263.5,83.2,263.5,65.5z"/>
</g>
<g>
	<path class="st1" d="M154.5,81.5c5.7,0,11.3,0,17,0c0,6.3,0,12.7,0,19c-5.7,0-11.3,0-17,0C154.5,94.2,154.5,87.8,154.5,81.5z"/>
</g>
<g>
	<path class="st1" d="M60.5,82.5c7,0,14,0,21,0c0,5.7,0,11.3,0,17c5.3,0,10.7,0,16,0c0-5.7,0-11.3,0-17c6.3,0,12.7,0,19,0
		c0,6,0,12,0,18c-6,0-12,0-18,0c0,6.3,0,12.7,0,19c-5.7,0-11.3,0-17,0c0-6.3,0-12.7,0-19c-7,0-14,0-21,0
		C60.5,94.5,60.5,88.5,60.5,82.5z"/>
</g>
<g>
	<path class="st2" d="M81.5,82.5c5.3,0,10.7,0,16,0c0,5.7,0,11.3,0,17c-5.3,0-10.7,0-16,0C81.5,93.8,81.5,88.2,81.5,82.5z"/>
</g>
<g>
	<path class="st1" d="M317.5,118.5c0-11.7,0-23.3,0-35c6.3,0,12.7,0,19,0c0,11.7,0,23.3,0,35C330.2,118.5,323.8,118.5,317.5,118.5z"
		/>
</g>
<g>
	<path class="st1" d="M208.5,84.5c6,0,12,0,18,0c0,11,0,22,0,33c-6,0-12,0-18,0C208.5,106.5,208.5,95.5,208.5,84.5z"/>
</g>
<g>
	<path class="st2" d="M116.5,100.5c0,6.3,0,12.7,0,19c-6,0-12,0-18,0c0-6.3,0-12.7,0-19C104.5,100.5,110.5,100.5,116.5,100.5z"/>
</g>
<g>
	<path class="st1" d="M116.5,100.5c6.3,0,12.7,0,19,0c0,12,0,24,0,36c-12.3,0-24.7,0-37,0c0-5.7,0-11.3,0-17c6,0,12,0,18,0
		C116.5,113.2,116.5,106.8,116.5,100.5z"/>
</g>
<g>
	<path class="st1" d="M171.5,101.5c6,0,12,0,18,0c0,5.3,0,10.7,0,16c6.3,0,12.7,0,19,0c0,6,0,12,0,18c-12.3,0-24.7,0-37,0
		C171.5,124.2,171.5,112.8,171.5,101.5z"/>
</g>
<g>
	<path class="st1" d="M43.5,118.5c6,0,12,0,18,0c0,13,0,26,0,39c-6,0-12,0-18,0C43.5,144.5,43.5,131.5,43.5,118.5z"/>
</g>
<g>
	<path class="st1" d="M317.5,118.5c0,5.7,0,11.3,0,17c-5.7,0-11.3,0-17,0c0-5.7,0-11.3,0-17C306.2,118.5,311.8,118.5,317.5,118.5z"
		/>
</g>
<g>
	<path class="st1" d="M337.5,137.5c5.7,0,11.3,0,17,0c0,6,0,12,0,18c-5.7,0-11.3,0-17,0C337.5,149.5,337.5,143.5,337.5,137.5z"/>
</g>
<g>
	<path class="st3" d="M336.5,301.5c-6.3,0-12.7,0-19,0c0,12,0,24,0,36c-5.7,0-11.3,0-17,0c0,6.3,0,12.7,0,19c-6.3,0-12.7,0-19,0
		c0,6,0,12,0,18c-12,0-24,0-36,0c-6,0-12,0-18,0c0,6.3,0,12.7,0,19c-18.3,0-36.7,0-55,0c0-6,0-12,0-18c-6.7,0-13.3,0-20,0
		c-12,0-24,0-36,0c0-6.3,0-12.7,0-19c-5.7,0-11.3,0-17,0c0-5.7,0-11.3,0-17c-6.3,0-12.7,0-19,0c0-13,0-26,0-39c-6.3,0-12.7,0-19,0
		c0-36,0-72,0-108c6,0,12,0,18,0c0-12,0-24,0-36c79,0,158,0,237,0c0,12,0,24,0,36c6.7,0,13.3,0,20,0
		C336.5,228.8,336.5,265.2,336.5,301.5z"/>
</g>
<g>
	<path class="st0" d="M97.5,190.5c18.7,0,37.3,0,56,0c0,6.3,0,12.7,0,19c6,0,12,0,18,0c0,6.3,0,12.7,0,19c-6,0-12,0-18,0
		c0-6,0-12,0-18c-18.3,0-36.7,0-55,0c0,6.3,0,12.7,0,19c-6,0-12,0-18,0c0-6.7,0-13.3,0-20c5.7,0,11.3,0,17,0
		C97.5,203.2,97.5,196.8,97.5,190.5z"/>
</g>
<g>
	<path class="st0" d="M299.5,210.5c-18,0-36,0-54,0c0,6.3,0,12.7,0,19c-6.3,0-12.7,0-19,0c0-6.3,0-12.7,0-19c6,0,12,0,18,0
		c0-6.3,0-12.7,0-19c18.3,0,36.7,0,55,0C299.5,197.8,299.5,204.2,299.5,210.5z"/>
</g>
<g>
	<path class="st0" d="M299.5,210.5c6.3,0,12.7,0,19,0c0,6,0,12,0,18c-6.3,0-12.7,0-19,0C299.5,222.5,299.5,216.5,299.5,210.5z"/>
</g>
<g>
	<path class="st4" d="M371.5,263.5c-5.3,0-10.7,0-16,0c0-6,0-12,0-18c5.3,0,10.7,0,16,0C371.5,251.5,371.5,257.5,371.5,263.5z"/>
</g>
<g>
	<path class="st4" d="M42.5,266.5c-6,0-12,0-18,0c0-6.3,0-12.7,0-19c6,0,12,0,18,0C42.5,253.8,42.5,260.2,42.5,266.5z"/>
</g>
<g>
	<path class="st3" d="M355.5,263.5c5.3,0,10.7,0,16,0c0,12.7,0,25.3,0,38c-5.3,0-10.7,0-16,0C355.5,288.8,355.5,276.2,355.5,263.5z"
		/>
</g>
<g>
	<path class="st0" d="M79.5,264.5c6.3,0,12.7,0,19,0c0,6.3,0,12.7,0,19c18.3,0,36.7,0,55,0c0-6.3,0-12.7,0-19c6.3,0,12.7,0,19,0
		c0,6.3,0,12.7,0,19c-6,0-12,0-18,0c0,6,0,12,0,18c-19,0-38,0-57,0c0-5.7,0-11.3,0-17c-6,0-12,0-18,0
		C79.5,277.8,79.5,271.2,79.5,264.5z"/>
</g>
<g>
	<path class="st0" d="M245.5,283.5c-6.7,0-13.3,0-20,0c0-6.3,0-12.7,0-19c6.7,0,13.3,0,20,0C245.5,270.8,245.5,277.2,245.5,283.5z"
		/>
</g>
<g>
	<path class="st0" d="M299.5,283.5c0-6.3,0-12.7,0-19c6.3,0,12.7,0,19,0c0,6.3,0,12.7,0,19C312.2,283.5,305.8,283.5,299.5,283.5z"/>
</g>
<g>
	<path class="st3" d="M24.5,266.5c6,0,12,0,18,0c0,11.7,0,23.3,0,35c-6,0-12,0-18,0C24.5,289.8,24.5,278.2,24.5,266.5z"/>
</g>
<g>
	<path class="st0" d="M245.5,283.5c18,0,36,0,54,0c0,6.7,0,13.3,0,20c-18,0-36,0-54,0C245.5,296.8,245.5,290.2,245.5,283.5z"/>
</g>
<g>
	<path class="st4" d="M61.5,300.5c6.3,0,12.7,0,19,0c0,13,0,26,0,39c-6.3,0-12.7,0-19,0C61.5,326.5,61.5,313.5,61.5,300.5z"/>
</g>
<g>
	<path class="st4" d="M336.5,301.5c0,12.3,0,24.7,0,37c-6,0-12,0-18,0c0,6,0,12,0,18c-6,0-12,0-18,0c0-6.3,0-12.7,0-19
		c5.7,0,11.3,0,17,0c0-12,0-24,0-36C323.8,301.5,330.2,301.5,336.5,301.5z"/>
</g>
<g>
	<path class="st0" d="M189.5,338.5c6.7,0,13.3,0,20,0c0,6,0,12,0,18c-6.7,0-13.3,0-20,0C189.5,350.5,189.5,344.5,189.5,338.5z"/>
</g>
<g>
	<path class="st4" d="M80.5,339.5c6.3,0,12.7,0,19,0c0,5.7,0,11.3,0,17c-6.3,0-12.7,0-19,0C80.5,350.8,80.5,345.2,80.5,339.5z"/>
</g>
<g>
	<path class="st4" d="M245.5,374.5c0,6.3,0,12.7,0,19c-6,0-12,0-18,0c0-6.3,0-12.7,0-19C233.5,374.5,239.5,374.5,245.5,374.5z"/>
</g>
<g>
	<path class="st4" d="M152.5,375.5c6.7,0,13.3,0,20,0c0,6,0,12,0,18c-6.7,0-13.3,0-20,0C152.5,387.5,152.5,381.5,152.5,375.5z"/>
</g>
<g>
	<path class="st5" d="M117.5,411.5c18,0,36,0,54,0c0,6,0,12,0,18c-6,0-12,0-18,0c-6.3,0-12.7,0-19,0c-5.7,0-11.3,0-17,0
		C117.5,423.5,117.5,417.5,117.5,411.5z"/>
</g>
<g>
	<path class="st3" d="M171.5,411.5c18,0,36,0,54,0c0,6,0,12,0,18c-18,0-36,0-54,0C171.5,423.5,171.5,417.5,171.5,411.5z"/>
</g>
<g>
	<path class="st5" d="M225.5,411.5c18.7,0,37.3,0,56,0c0,6,0,12,0,18c6.3,0,12.7,0,19,0c0,6,0,12,0,18c6,0,12,0,18,0c0,6,0,12,0,18
		c6.3,0,12.7,0,19,0c0,6.3,0,12.7,0,19c-6.3,0-12.7,0-19,0c0,6,0,12,0,18c-0.3,0-0.7,0-1,0c-6,0-12,0-18,0c0-6,0-12,0-18
		c6,0,12,0,18,0c0-6,0-12,0-18c-6,0-12,0-18,0c0-6,0-12,0-18c-6,0-12,0-18,0c0-6,0-12,0-18c-6,0-12,0-18,0c-6.3,0-12.7,0-19,0
		c-6,0-12,0-18,0c0,6,0,12,0,18c-18.3,0-36.7,0-55,0c0-6.3,0-12.7,0-19c18,0,36,0,54,0C225.5,423.5,225.5,417.5,225.5,411.5z"/>
</g>
<g>
	<path class="st5" d="M117.5,429.5c0,6,0,12,0,18c-6.3,0-12.7,0-19,0c0-6,0-12,0-18C104.8,429.5,111.2,429.5,117.5,429.5z"/>
</g>
<g>
	<path class="st6" d="M117.5,429.5c5.7,0,11.3,0,17,0c0,12.3,0,24.7,0,37c-6,0-12,0-18,0s-12,0-18,0c0-6.3,0-12.7,0-19
		c6.3,0,12.7,0,19,0C117.5,441.5,117.5,435.5,117.5,429.5z"/>
</g>
<g>
	<path class="st7" d="M134.5,429.5c6.3,0,12.7,0,19,0c0,12.3,0,24.7,0,37c-6.3,0-12.7,0-19,0C134.5,454.2,134.5,441.8,134.5,429.5z"
		/>
</g>
<g>
	<path class="st6" d="M153.5,429.5c6,0,12,0,18,0c0,6.3,0,12.7,0,19c0,5.7,0,11.3,0,17c18.3,0,36.7,0,55,0c0-5.7,0-11.3,0-17
		c0-6,0-12,0-18c6,0,12,0,18,0c0,12,0,24,0,36c6.3,0,12.7,0,19,0c0,18.3,0,36.7,0,55c6,0,12,0,18,0c0,12,0,24,0,36c-6,0-12,0-18,0
		c0-6.3,0-12.7,0-19c-6.3,0-12.7,0-19,0c0-18,0-36,0-54c-30,0-60,0-90,0c0,17.7,0,35.3,0,53c-6,0-12,0-18,0c0,6.7,0,13.3,0,20
		c-6.3,0-12.7,0-19,0c0-12,0-24,0-36c5.7,0,11.3,0,17,0c0-18.3,0-36.7,0-55c6.3,0,12.7,0,19,0C153.5,454.2,153.5,441.8,153.5,429.5z
		"/>
</g>
<g>
	<path class="st7" d="M244.5,430.5c6.3,0,12.7,0,19,0c0,12,0,24,0,36c-6.3,0-12.7,0-19,0C244.5,454.5,244.5,442.5,244.5,430.5z"/>
</g>
<g>
	<path class="st6" d="M263.5,430.5c6,0,12,0,18,0c0,6,0,12,0,18c6,0,12,0,18,0c0,6,0,12,0,18c-5.7,0-11.3,0-17,0c-6.3,0-12.7,0-19,0
		C263.5,454.5,263.5,442.5,263.5,430.5z"/>
</g>
<g>
	<path class="st5" d="M98.5,447.5c0,6.3,0,12.7,0,19c-6,0-12,0-18,0c0,6,0,12,0,18c6,0,12,0,18,0c0,6,0,12,0,18c6,0,12,0,18,0
		c0-6,0-12,0-18s0-12,0-18c6,0,12,0,18,0c0,18.3,0,36.7,0,55c-5.7,0-11.3,0-17,0c0,12,0,24,0,36c0,6.3,0,12.7,0,19
		c0,5.3,0,10.7,0,16c54.7,0,109.3,0,164,0c0-5.3,0-10.7,0-16c0-6.3,0-12.7,0-19c0-12,0-24,0-36c-6,0-12,0-18,0c0-18.3,0-36.7,0-55
		c6.3,0,12.7,0,19,0c0,6,0,12,0,18s0,12,0,18c5.7,0,11.3,0,17,0c0,6.3,0,12.7,0,19c0,30.7,0,61.3,0,92c-5.7,0-11.3,0-17,0
		c-6.7,0-13.3,0-20,0c-6,0-12,0-18,0s-12,0-18,0c-18.3,0-36.7,0-55,0c-5.7,0-11.3,0-17,0c-6,0-12,0-18,0c-6.7,0-13.3,0-20,0
		c-6,0-12,0-18,0c0-31,0-62,0-93c0-5.7,0-11.3,0-17c-6.3,0-12.7,0-19,0c0-0.3,0-0.7,0-1c0-5.7,0-11.3,0-17c-6,0-12,0-18,0
		c0-6.7,0-13.3,0-20c6,0,12,0,18,0c0-6,0-12,0-18C85.8,447.5,92.2,447.5,98.5,447.5z"/>
</g>
<g>
	<path class="st8" d="M171.5,448.5c18.3,0,36.7,0,55,0c0,5.7,0,11.3,0,17c-18.3,0-36.7,0-55,0C171.5,459.8,171.5,454.2,171.5,448.5z
		"/>
</g>
<g>
	<path class="st6" d="M98.5,466.5c0,6,0,12,0,18c-6,0-12,0-18,0c0-6,0-12,0-18C86.5,466.5,92.5,466.5,98.5,466.5z"/>
</g>
<g>
	<path class="st7" d="M98.5,466.5c6,0,12,0,18,0c0,6,0,12,0,18c-6,0-12,0-18,0C98.5,478.5,98.5,472.5,98.5,466.5z"/>
</g>
<g>
	<path class="st7" d="M282.5,466.5c5.7,0,11.3,0,17,0c0,6,0,12,0,18c-5.7,0-11.3,0-17,0C282.5,478.5,282.5,472.5,282.5,466.5z"/>
</g>
<g>
	<path class="st6" d="M299.5,466.5c6,0,12,0,18,0c0,6,0,12,0,18c-6,0-12,0-18,0C299.5,478.5,299.5,472.5,299.5,466.5z"/>
</g>
<g>
	<path class="st6" d="M98.5,484.5c6,0,12,0,18,0c0,6,0,12,0,18c-6,0-12,0-18,0C98.5,496.5,98.5,490.5,98.5,484.5z"/>
</g>
<g>
	<path class="st8" d="M263.5,557.5c-42.3,0-84.7,0-127,0c0-6.7,0-13.3,0-20c6,0,12,0,18,0c0-17.7,0-35.3,0-53c30,0,60,0,90,0
		c0,18,0,36,0,54c6.3,0,12.7,0,19,0C263.5,544.8,263.5,551.2,263.5,557.5z"/>
</g>
<g>
	<path class="st6" d="M282.5,484.5c5.7,0,11.3,0,17,0c0,6,0,12,0,18c-5.7,0-11.3,0-17,0C282.5,496.5,282.5,490.5,282.5,484.5z"/>
</g>
<g>
	<path class="st0" d="M79.5,502.5c0,0.3,0,0.7,0,1c0,5.7,0,11.3,0,17c0,12.3,0,24.7,0,37c-6,0-12,0-18,0c0-18.3,0-36.7,0-55
		C67.5,502.5,73.5,502.5,79.5,502.5z"/>
</g>
<g>
	<path class="st3" d="M299.5,502.5c6,0,12,0,18,0c0,6.3,0,12.7,0,19c-6,0-12,0-18,0C299.5,515.2,299.5,508.8,299.5,502.5z"/>
</g>
<g>
	<path class="st0" d="M317.5,502.5c0.3,0,0.7,0,1,0c6,0,12,0,18,0c0,18,0,36,0,54c6,0,12,0,18,0c0,18.7,0,37.3,0,56c-6,0-12,0-18,0
		c0-6,0-12,0-18c0-12.3,0-24.7,0-37c-6.3,0-12.7,0-19,0c0-12,0-24,0-36C317.5,515.2,317.5,508.8,317.5,502.5z"/>
</g>
<g>
	<path class="st3" d="M79.5,503.5c6.3,0,12.7,0,19,0c0,5.7,0,11.3,0,17c-6.3,0-12.7,0-19,0C79.5,514.8,79.5,509.2,79.5,503.5z"/>
</g>
<g>
	<path class="st9" d="M79.5,520.5c6.3,0,12.7,0,19,0c0,31,0,62,0,93c-6.2-1-12.6-1.3-19-1c0-6,0-12,0-18c0-12.3,0-24.7,0-37
		S79.5,532.8,79.5,520.5z"/>
</g>
<g>
	<path class="st9" d="M299.5,521.5c6,0,12,0,18,0c0,12,0,24,0,36c0,12.3,0,24.7,0,37c0,6,0,12,0,18c0,0.3,0,0.7,0,1c-6,0-12,0-18,0
		C299.5,582.8,299.5,552.2,299.5,521.5z"/>
</g>
<g>
	<path class="st0" d="M61.5,557.5c0,12.3,0,24.7,0,37c0,6,0,12,0,18c-6,0-12,0-18,0c0-18.3,0-36.7,0-55
		C49.5,557.5,55.5,557.5,61.5,557.5z"/>
</g>
<g>
	<path class="st3" d="M61.5,557.5c6,0,12,0,18,0c0,12.3,0,24.7,0,37c-6,0-12,0-18,0C61.5,582.2,61.5,569.8,61.5,557.5z"/>
</g>
<g>
	<path class="st7" d="M117.5,557.5c6.3,0,12.7,0,19,0c0,6.3,0,12.7,0,19c-6.3,0-12.7,0-19,0C117.5,570.2,117.5,563.8,117.5,557.5z"
		/>
</g>
<g>
	<path class="st6" d="M136.5,557.5c42.3,0,84.7,0,127,0c0,6.3,0,12.7,0,19c-42.3,0-84.7,0-127,0
		C136.5,570.2,136.5,563.8,136.5,557.5z"/>
</g>
<g>
	<path class="st7" d="M263.5,557.5c6,0,12,0,18,0c0,6.3,0,12.7,0,19c-6,0-12,0-18,0C263.5,570.2,263.5,563.8,263.5,557.5z"/>
</g>
<g>
	<path class="st3" d="M317.5,557.5c6.3,0,12.7,0,19,0c0,12.3,0,24.7,0,37c-6.3,0-12.7,0-19,0C317.5,582.2,317.5,569.8,317.5,557.5z"
		/>
</g>
<g>
	<path class="st8" d="M117.5,576.5c6.3,0,12.7,0,19,0c42.3,0,84.7,0,127,0c6,0,12,0,18,0c0,5.3,0,10.7,0,16c-54.7,0-109.3,0-164,0
		C117.5,587.2,117.5,581.8,117.5,576.5z"/>
</g>
<g>
	<path class="st4" d="M61.5,594.5c6,0,12,0,18,0c0,6,0,12,0,18c-6,0-12,0-18,0C61.5,606.5,61.5,600.5,61.5,594.5z"/>
</g>
<g>
	<path class="st4" d="M317.5,594.5c6.3,0,12.7,0,19,0c0,6,0,12,0,18c-6.3,0-12.7,0-19,0C317.5,606.5,317.5,600.5,317.5,594.5z"/>
</g>
<g>
	<path class="st0" d="M61.5,612.5c6,0,12,0,18,0c0,6.3,0,12.7,0,19c-6,0-12,0-18,0C61.5,625.2,61.5,618.8,61.5,612.5z"/>
</g>
<g>
	<path class="st3" d="M79.5,612.5c6.4-0.3,12.8,0,19,1c0,6,0,12,0,18c-6.3,0-12.7,0-19,0C79.5,625.2,79.5,618.8,79.5,612.5z"/>
</g>
<g>
	<path class="st0" d="M317.5,612.5c6.3,0,12.7,0,19,0c0,6,0,12,0,18c-6,0-12,0-18,0c0,6.3,0,12.7,0,19c-12.3,0-24.7,0-37,0
		c0-5.7,0-11.3,0-17c0.8-0.3,1.2-1,1-2c5.7,0,11.3,0,17,0c6,0,12,0,18,0c0-5.7,0-11.3,0-17C317.5,613.2,317.5,612.8,317.5,612.5z"/>
</g>
<g>
	<path class="st10" d="M98.5,613.5c6,0,12,0,18,0c0,6.3,0,12.7,0,19c-6.2,0.3-12.2,0-18-1C98.5,625.5,98.5,619.5,98.5,613.5z"/>
</g>
<g>
	<path class="st11" d="M116.5,613.5c6.7,0,13.3,0,20,0c0,6.7,0,13.3,0,20c-6.7,0-13.3,0-20,0c0-0.3,0-0.7,0-1
		C116.5,626.2,116.5,619.8,116.5,613.5z"/>
</g>
<g>
	<path class="st12" d="M136.5,613.5c6,0,12,0,18,0c0,30,0,60,0,90c-6,0-12,0-18,0c0-23.3,0-46.7,0-70
		C136.5,626.8,136.5,620.2,136.5,613.5z"/>
</g>
<g>
	<path class="st11" d="M154.5,613.5c5.7,0,11.3,0,17,0c0,5.7,0,11.3,0,17c0,24.3,0,48.7,0,73c-5.7,0-11.3,0-17,0
		C154.5,673.5,154.5,643.5,154.5,613.5z"/>
</g>
<g>
	<path class="st12" d="M171.5,613.5c18.3,0,36.7,0,55,0c0,5.7,0,11.3,0,17c-18.3,0-36.7,0-55,0C171.5,624.8,171.5,619.2,171.5,613.5
		z"/>
</g>
<g>
	<path class="st11" d="M226.5,613.5c6,0,12,0,18,0c0,30,0,60,0,90c-6,0-12,0-18,0c0-24.3,0-48.7,0-73
		C226.5,624.8,226.5,619.2,226.5,613.5z"/>
</g>
<g>
	<path class="st12" d="M244.5,613.5c6,0,12,0,18,0c0,6.3,0,12.7,0,19c0,23.7,0,47.3,0,71c-6,0-12,0-18,0
		C244.5,673.5,244.5,643.5,244.5,613.5z"/>
</g>
<g>
	<path class="st11" d="M262.5,613.5c6.7,0,13.3,0,20,0c0,5.7,0,11.3,0,17c0.2,1-0.2,1.7-1,2c-6.3,0-12.7,0-19,0
		C262.5,626.2,262.5,619.8,262.5,613.5z"/>
</g>
<g>
	<path class="st10" d="M282.5,613.5c5.7,0,11.3,0,17,0c0,5.7,0,11.3,0,17c-5.7,0-11.3,0-17,0C282.5,624.8,282.5,619.2,282.5,613.5z"
		/>
</g>
<g>
	<path class="st3" d="M299.5,613.5c6,0,12,0,18,0c0,5.7,0,11.3,0,17c-6,0-12,0-18,0C299.5,624.8,299.5,619.2,299.5,613.5z"/>
</g>
<g>
	<path class="st10" d="M171.5,630.5c18.3,0,36.7,0,55,0c0,24.3,0,48.7,0,73c6,0,12,0,18,0s12,0,18,0c0-23.7,0-47.3,0-71
		c6.3,0,12.7,0,19,0c0,5.7,0,11.3,0,17c0,18,0,36,0,54c6.3,0,12.7,0,19,0c0,6,0,12,0,18c0,0.7-0.3,1-1,1c-5.3,0-10.7,0-16,0
		c-6.7,0-13.3,0-20,0c-6.3,0-12.7,0-19,0c-6,0-12,0-18,0s-12,0-18,0c0-24.3,0-48.7,0-73c-6,0-12,0-18,0c0,24.3,0,48.7,0,73
		c-6,0-12,0-18,0c-6.3,0-12.7,0-19,0s-12.7,0-19,0c-6,0-12,0-18,0c-5.7,0-11.3,0-17,0c-0.7,0-1-0.3-1-1c0-6,0-12,0-18c6,0,12,0,18,0
		c0-18,0-36,0-54c0-5.3,0-10.7,0-16c6.7,0,13.3,0,20,0c0,23.3,0,46.7,0,70c6,0,12,0,18,0c5.7,0,11.3,0,17,0
		C171.5,679.2,171.5,654.8,171.5,630.5z"/>
</g>
<g>
	<path class="st0" d="M79.5,631.5c6.3,0,12.7,0,19,0c5.8,1,11.8,1.3,18,1c0,0.3,0,0.7,0,1c0,5.3,0,10.7,0,16c-12.3,0-24.7,0-37,0
		C79.5,643.5,79.5,637.5,79.5,631.5z"/>
</g>
<g>
	<path class="st0" d="M98.5,721.5c0,0.7,0.3,1,1,1c0,5.7,0,11.3,0,17c0,6.3,0,12.7,0,19c11.7,0,23.3,0,35,0c0-12,0-24,0-36
		c6.3,0,12.7,0,19,0c0,12,0,24,0,36c6.3,0,12.7,0,19,0c0-12,0-24,0-36c6,0,12,0,18,0c0.3,18.6,0,37.1-1,55.5
		c-36.7,0.5-73.3,0.7-110,0.5c0-19,0-38,0-57C85.8,721.5,92.2,721.5,98.5,721.5z"/>
</g>
<g>
	<path class="st0" d="M300.5,721.5c6,0,12,0,18,0c0,18.7,0,37.3,0,56c-36.7,0-73.3,0-110,0c0-18.3,0-36.7,0-55c6,0,12,0,18,0
		c0,12,0,24,0,36c6,0,12,0,18,0c0-12,0-24,0-36c6.3,0,12.7,0,19,0c0,12,0,24,0,36c12,0,24,0,36,0c0-6,0-12,0-18s0-12,0-18
		C300.2,722.5,300.5,722.2,300.5,721.5z"/>
</g>
<g>
	<path class="st13" d="M99.5,722.5c5.7,0,11.3,0,17,0c0,5.7,0,11.3,0,17c-5.7,0-11.3,0-17,0C99.5,733.8,99.5,728.2,99.5,722.5z"/>
</g>
<g>
	<path class="st14" d="M116.5,722.5c6,0,12,0,18,0c0,12,0,24,0,36c-11.7,0-23.3,0-35,0c0-6.3,0-12.7,0-19c5.7,0,11.3,0,17,0
		C116.5,733.8,116.5,728.2,116.5,722.5z"/>
</g>
<g>
	<path class="st3" d="M153.5,722.5c6.3,0,12.7,0,19,0c0,12,0,24,0,36c-6.3,0-12.7,0-19,0C153.5,746.5,153.5,734.5,153.5,722.5z"/>
</g>
<g>
	<path class="st3" d="M226.5,722.5c6,0,12,0,18,0c0,12,0,24,0,36c-6,0-12,0-18,0C226.5,746.5,226.5,734.5,226.5,722.5z"/>
</g>
<g>
	<path class="st14" d="M263.5,722.5c6.7,0,13.3,0,20,0c0,6,0,12,0,18c5.3,0,10.7,0,16,0c0,6,0,12,0,18c-12,0-24,0-36,0
		C263.5,746.5,263.5,734.5,263.5,722.5z"/>
</g>
<g>
	<path class="st13" d="M283.5,722.5c5.3,0,10.7,0,16,0c0,6,0,12,0,18c-5.3,0-10.7,0-16,0C283.5,734.5,283.5,728.5,283.5,722.5z"/>
</g>
</svg>
