<?xml version="1.0" encoding="UTF-8" standalone="no"?>
<svg
   version="1.1"
   id="Layer_1"
   x="0px"
   y="0px"
   width="3686400"
   viewBox="0 0 3686400 1254400"
   enable-background="new 0 0 1920 1120"
   xml:space="preserve"
   sodipodi:docname="scarytree.svg"
   height="1254400"
   xmlns:inkscape="http://www.inkscape.org/namespaces/inkscape"
   xmlns:sodipodi="http://sodipodi.sourceforge.net/DTD/sodipodi-0.dtd"
   xmlns="http://www.w3.org/2000/svg"
   xmlns:svg="http://www.w3.org/2000/svg"><defs
   id="defs7686" /><sodipodi:namedview
   id="namedview7684"
   pagecolor="#ffffff"
   bordercolor="#000000"
   borderopacity="0.25"
   inkscape:showpageshadow="2"
   inkscape:pageopacity="0.0"
   inkscape:pagecheckerboard="0"
   inkscape:deskcolor="#d1d1d1"
   showgrid="false" />
<path
   id="path7527"
   d="m 1589.752,36.935547 c 3.9214,0.128647 7.8404,0.355973 11.7636,0.417969 22.6138,0.357346 45.2339,0.0756 67.8555,-0.417969 -26.5397,-2.05e-4 -53.0795,5.4e-4 -79.6191,0 z" />
<path
   fill="#331f07"
   opacity="1"
   stroke="none"
   d="m 284.59436,250.04907 c 5.0289,-0.13856 9.6777,-0.0929 14.32547,-0.14476 3.30984,-0.0369 5.49811,1.34787 5.90814,4.72292 0.45493,3.7449 2.88651,4.37912 6.01645,4.36718 8.79904,-0.0336 17.60025,0.11619 26.39682,-0.0321 4.3392,-0.0732 7.1445,1.03632 6.94693,6.03864 -0.11627,2.94543 1.31775,4.80566 4.42053,4.80777 4.05335,0.003 5.56958,2.17156 5.62735,5.94689 0.035,2.28785 1.28409,3.98801 3.63141,3.93534 6.09409,-0.13669 6.52622,3.78918 6.34329,8.74277 2.5741,2.78509 5.68439,1.3099 8.51313,1.49829 2.36853,0.15777 4.30392,0.0585 5.25595,2.84384 0.68167,1.99447 2.52447,3.08188 4.62161,3.35937 4.62558,0.61203 9.27475,0.49384 13.91061,0.1174 1.31226,-0.10656 2.83496,-0.41299 3.08582,-2.01379 0.27051,-1.72617 -1.21332,-2.30634 -2.49698,-2.52786 -2.84616,-0.49131 -4.32113,-2.01895 -4.77685,-4.88498 -0.46683,-2.93582 -2.39985,-4.76688 -5.31559,-5.19141 -3.5935,-0.52325 -4.63009,-2.73685 -4.49643,-5.96106 0.0274,-0.66211 -0.0789,-1.33673 3.1e-4,-1.99017 0.72363,-5.97055 -0.815,-10.892 -6.492,-14.31027 -0.1121,-4.82364 0.0126,-9.31751 -0.17258,-13.79854 -0.18939,-4.58165 1.56048,-6.97101 6.37463,-6.56799 0.82495,0.069 1.66144,-0.001 2.49262,-0.005 10.27856,-0.0469 10.28875,-0.0468 10.281,-10.55856 -0.005,-6.15055 -0.0478,-12.30108 -0.0992,-18.91573 -2.505,-2.41025 -2.49023,-5.1714 -2.40668,-7.92053 0.15833,-5.20993 -1.51336,-9.27642 -7.08746,-10.40605 -2.06934,-0.41936 -2.43949,-1.8938 -2.78592,-3.23188 -1.22043,-4.71363 -4.50302,-6.27958 -8.92621,-6.39305 -1.1658,-0.0299 -2.33154,-0.0561 -3.49741,-0.0809 -7.81616,-0.16664 -10.00329,-4.25212 -5.6264,-11.42697 10.06616,-0.20398 19.72412,-0.24677 29.84223,-0.30628 1.75036,-1.08119 3.122,-1.9835 4.86755,-2.03929 2.70996,-0.0866 5.52209,-0.0362 7.04742,2.62606 1.48169,2.5861 1.58582,5.35122 -0.91491,8.24408 -2.10791,9.44247 -1.10489,18.56024 -1.06665,27.65132 0.008,1.8446 1.18676,3.38882 3.05072,3.34543 6.06399,-0.14119 7.18875,3.47196 6.84484,8.84515 1.80805,2.05653 2.30359,4.11578 2.26386,6.46185 -0.0534,3.15146 -0.072,6.30765 0.006,9.45893 0.0879,3.55822 -0.32248,6.69573 -4.60434,7.63206 -0.95386,0.2086 -1.74045,0.94333 -2.40976,1.70494 -3.93518,4.47801 -2.34717,19.22575 2.53922,22.78856 1.05679,0.77054 1.83963,1.66916 2.81781,3.00211 5.18359,0.10598 9.48968,0.28323 9.63061,7.12335 0.0733,3.55972 3.56091,3.16843 6.17334,3.2066 2.76315,0.0404 4.90378,-0.77936 5.09766,-4.01187 0.0787,-1.3114 0.0934,-2.62659 0.15277,-4.37921 0.0309,-0.83948 0.19488,-1.16501 0.79193,-1.4584 9.31116,-0.0587 18.33768,-0.0747 27.83261,-0.0812 4.48206,2.13064 2.95691,5.70956 2.4639,8.73617 -0.48532,2.97937 -3.32297,2.70606 -5.59671,2.83777 -2.14777,0.12442 -4.30481,0.0328 -6.45285,0.23361 -3.64713,0.34083 -6.41574,1.95954 -7.24662,5.68781 -0.73294,3.28888 -2.88549,4.09509 -5.78921,4.10477 -2.31799,0.008 -4.6442,-0.0628 -6.94885,0.22427 -4.77927,0.59515 -6.6731,2.50842 -7.27109,7.29089 -0.40183,3.21326 0.24017,6.56229 -1.47812,9.99991 -4.20685,2.61627 -8.48947,4.49829 -9.07031,10.00815 -0.15045,1.42737 -1.90802,1.98624 -3.20136,2.67319 -2.29501,1.21905 -3.06469,3.14337 -0.35653,4.36453 3.63436,1.63885 4.04712,4.40921 3.92056,7.71155 -0.0446,1.16263 -0.009,2.32965 0.0432,3.49328 0.31131,6.9433 2.19574,8.87021 9.01172,9.19971 1.99451,0.0964 3.99237,0.0598 5.98859,0.1026 3.21072,0.0689 4.8609,1.62167 4.89291,4.88202 0.0833,8.48523 0.12958,16.97022 -0.0262,25.45487 -0.0411,2.23757 -0.81864,4.05212 -3.25129,4.50344 -5.11789,0.94956 -6.57968,4.47031 -6.6203,9.09134 -0.0146,1.66315 -0.0469,3.32706 -0.0915,4.99045 -0.0686,2.55814 -0.98517,4.36914 -3.73263,4.99789 -4.19275,0.95954 -6.0214,3.7836 -6.02185,7.99253 -4.3e-4,4.18228 1.71832,7.08148 5.95745,8.02591 2.9563,0.65866 3.82001,2.61731 3.82999,5.34155 0.009,2.49188 -0.0941,4.99353 0.19687,7.47443 0.54413,4.63961 2.33862,6.427 6.94553,7.01724 0.65991,0.0845 1.32696,0.14215 1.99166,0.12616 10.94339,-0.26291 9.79551,1.30725 9.87482,10.15674 0.0298,3.32702 0.002,6.65478 -0.0335,9.98254 -0.0348,3.23651 -1.65844,4.80817 -4.81243,4.90884 -0.49384,0.0158 -1.00538,0.0618 -1.48609,0.007 -6.30276,-0.72361 -11.39563,1.07431 -14.89233,7.19079 -1.7934,0.32489 -3.28733,0.34628 -4.78015,0.39905 -3.6605,0.1294 -5.67737,-1.49014 -5.58933,-5.28879 0.0911,-3.92993 -1.65353,-5.73654 -5.71835,-5.6568 -4.45087,0.0873 -5.06272,2.79526 -5.0477,6.31507 0.0375,8.80081 0.0226,17.60202 -0.0116,26.40289 -0.0301,7.75433 -0.31573,8.0217 -8.5874,8.35486 -3.24634,2.3088 -6.15753,3.08774 -9.49548,0.0999 -0.20752,-2.32644 -0.23246,-4.14242 -0.20316,-5.95755 0.0501,-3.10849 -1.14725,-5.08902 -4.5325,-5.20733 -2.92575,-0.10224 -5.20038,-0.93366 -5.28781,-4.47886 -0.0846,-3.42965 1.87521,-4.58032 4.91025,-4.89492 3.89971,-0.40427 3.9515,-3.31201 3.85537,-6.2601 -0.1026,-3.14695 -1.93557,-4.33667 -4.84482,-4.33045 -1.32025,0.003 -2.6405,0.0121 -4.40005,0.0306 -3.02957,2.39508 -5.77435,3.02673 -9.20255,0.37982 -0.42657,-0.36771 -0.78509,-0.39737 -0.96386,-0.41717 -3.63425,-1.30698 -2.52176,-4.30552 -2.66107,-7.24701 5.47595,-3.4404 9.28921,-7.68705 12.61514,-13.07685 2.33777,-3.78848 10.43625,-1.31533 12.3237,3.00101 0.5339,1.22095 0.89944,2.75778 2.62442,2.44058 1.57855,-0.29025 1.75671,-1.83279 1.99853,-3.14221 0.2121,-1.14847 0.28998,-2.32873 0.2042,-3.48648 -0.32202,-4.34686 0.23181,-8.00858 5.62768,-8.75241 1.33267,-0.18372 2.41907,-1.27381 2.47449,-2.79318 0.0652,-1.7883 -1.18054,-2.89762 -2.6984,-3.13285 -3.6502,-0.5657 -5.26437,-2.70419 -5.94119,-6.15744 -0.40771,-2.08023 -2.15915,-3.21896 -4.13739,-3.99255 -5.97662,-2.33722 -7.10968,-6.49625 -3.1795,-12.62149 0.30761,-1.94861 0.40149,-3.61112 0.40896,-5.27402 0.0148,-3.28891 1.26932,-5.04593 4.89151,-4.37421 3.99323,0.74061 5.97699,-1.005 6.01905,-5.09274 0.0351,-3.41562 2.2008,-4.55517 5.2576,-4.63421 3.03079,-0.0783 4.63376,-1.63889 4.59671,-4.6843 -0.10309,-8.46991 0.65432,-16.95663 -0.6178,-25.79382 -2.91706,-3.67707 -5.038,-7.59638 -9.16226,-10.00602 -0.13971,-3.33569 -0.18677,-6.34548 -0.25016,-9.8031 -2.96237,-2.46707 -3.60028,-5.12692 -2.91247,-8.60641 1.27783,-6.4642 0.34183,-8.15207 -5.53043,-10.95004 -1.59634,-0.76062 -2.75186,-1.78574 -3.28512,-3.36499 -1.57029,-4.65064 -4.93735,-6.30481 -9.58573,-6.13275 -1.98532,0.0735 -3.9819,0.0422 -5.97015,-0.13837 -1.46124,-0.13266 -3.16068,-0.97168 -3.39951,-1.94538 -1.75613,-7.15896 -8.99411,-9.27987 -13.28454,-14.0195 -3.56296,-3.93597 -8.93231,-6.10778 -12.34012,-11.2499 -1.82977,-2.76096 -5.56833,-4.5308 -7.23914,-8.43757 -1.89361,-4.42776 -10.53537,-4.20336 -13.86789,-0.11492 -0.87445,1.07281 -1.23974,2.55377 -2.95428,3.35974 -3.40485,0.13272 -6.45462,0.14523 -9.96109,0.14544 -3.82523,-2.74682 -6.17502,-6.97506 -11.17276,-7.32074 -1.86832,-5.39776 -5.89603,-8.37915 -10.65488,-11.33883 -2.18484,-1.35883 -2.05734,-6.26332 0.99045,-9.39713 z"
   id="path7529" />
<path
   fill="#0e0e06"
   opacity="1"
   stroke="none"
   d="m 425.41583,468.98602 c -0.4165,-1.66623 -0.37155,-3.32904 -0.35431,-4.99215 0.0339,-3.27213 1.70609,-4.8808 4.94834,-4.92615 2.99347,-0.0419 5.98681,-0.0942 8.98025,-0.13648 3.2526,-0.046 4.89533,-1.6921 4.94083,-4.94345 0.22903,-16.35434 1.15063,-15.42221 -12.92612,-15.00256 -4.21002,0.12552 -6.16308,-1.79447 -5.99017,-5.99786 0.0751,-1.82618 -0.1008,-3.66404 10e-4,-5.4874 0.26572,-4.7413 -0.18698,-8.74152 -6.47903,-8.77823 -2.35871,-0.0137 -3.34079,-1.97702 -3.40915,-4.19583 -0.0973,-3.15756 0.0176,-6.32358 -0.14139,-9.47678 -0.21582,-4.28116 0.97613,-7.14001 5.93985,-7.20898 2.5719,-0.0358 3.83453,-1.76697 3.94635,-4.26831 0.0965,-2.15888 0.22855,-4.33029 0.10287,-6.48203 -0.27334,-4.68097 0.49613,-8.30023 6.40101,-8.34405 2.3518,-0.0174 3.4584,-1.89701 3.48086,-4.13166 0.0701,-6.98385 0.0756,-13.96899 0.0296,-20.95312 -0.0201,-3.05548 -1.7792,-4.51535 -4.75094,-4.57819 -2.82672,-0.0598 -5.65552,-0.0313 -8.48169,-0.10571 -5.70722,-0.15012 -6.49829,-0.97348 -6.63574,-6.83636 -0.0429,-1.82886 -0.10263,-3.66376 -0.007,-5.48816 0.22223,-4.24625 -0.47009,-7.5658 -5.78808,-7.98508 -2.65723,-0.20947 -3.14569,-2.5947 -3.10437,-4.93094 0.0388,-2.19668 0.7503,-4.20734 3.13092,-4.42679 4.10263,-0.37823 5.46045,-2.51742 6.01254,-6.43615 0.76456,-5.42655 5.51758,-3.38843 9.64405,-3.84946 2.53839,4.23654 5.57162,7.27182 9.75845,9.70709 10.31473,0.34812 10.32623,0.35361 10.3331,10.68112 0.0108,16.24521 0.0122,32.49045 0.0207,49.21042 1.78842,1.82889 2.36771,3.61203 2.46527,5.8534 0.18851,4.33056 -0.40481,8.5541 -1.06744,12.79547 -0.30002,1.92035 -1.06345,3.41519 -3.00318,4.08542 -4.46188,1.54177 -5.69748,5.04739 -5.8854,9.33953 -0.11527,2.6326 0.63653,5.55591 -2.19996,7.91101 -0.29751,1.79468 -0.26647,3.2948 -0.2843,4.79432 -0.044,3.70053 1.73511,5.55697 5.46946,5.54815 2.83282,-0.007 5.66757,0.13324 8.49829,0.069 4.23928,-0.0962 6.05044,1.97385 5.97705,6.11777 -0.0768,4.33142 0.0214,8.66589 0.0492,13.47266 1.4624,1.73077 2.34317,3.21005 2.379,5.24008 0.11957,6.7681 0.13013,13.53372 -10e-4,20.30176 -0.0312,1.61023 -0.54901,2.9328 -1.93649,4.46981 -5.29706,0.34516 -10.24091,0.35987 -15.18375,0.29453 -2.26382,-0.0299 -4.77267,-0.5788 -4.88058,-3.17096 -0.27735,-6.66272 -4.54315,-7.09784 -9.99921,-6.7587 z"
   id="path7531" />
<path
   fill="#0e0e06"
   opacity="1"
   stroke="none"
   d="m 364.83548,169.75073 c 0.28803,9.11702 0.38788,9.21175 9.50622,9.25031 1.82462,0.008 3.64905,0.0516 5.47364,0.0569 3.16159,0.009 5.05478,1.42906 5.14953,4.72611 0.0989,3.44046 1.80744,5.15367 5.24912,5.24983 3.65616,0.10217 4.7793,2.38634 4.75327,5.64601 -0.0357,4.47853 -0.0323,8.95737 -0.0708,13.90961 -5.09814,0.57602 -9.59118,0.83992 -10.52536,-6.48407 -0.60318,-4.72872 -5.88757,-2.60732 -9.67111,-3.04315 -2.0231,0.20733 -2.78314,-0.57506 -3.18207,-2.06083 -1.12884,-4.20399 -4.32049,-5.35655 -8.23187,-5.47337 -2.40494,-0.0718 -4.98135,0.29837 -7.04281,-2.25276 -0.50712,-0.4785 -0.72413,-0.68767 -1.08738,-1.0704 -2.64535,-3.3691 -5.28244,-6.42736 -8.93988,-8.96486 -0.47986,-0.44324 -0.69687,-0.65241 -1.06012,-1.03514 -2.64535,-3.3691 -5.28244,-6.42736 -8.93988,-8.96486 -0.47986,-0.44324 -0.69687,-0.65241 -1.06012,-1.03514 -2.64795,-1.96422 -2.61041,-4.61171 -2.68933,-7.30797 -0.19766,-6.75342 -0.59149,-7.31609 -6.93426,-9.59758 -1.43949,-0.51778 -2.64713,-1.35323 -2.75373,-2.66056 -0.35156,-4.3122 -3.31817,-6.65666 -6.53845,-9.36608 -5.24527,-0.28569 -10.21121,-0.29865 -15.17712,-0.30707 -3.35233,-0.006 -5.91483,-0.89859 -5.92325,-4.95424 -0.008,-4.04201 2.50778,-4.98998 5.88577,-4.9828 1.32416,0.003 2.64835,-0.0226 4.41901,-0.0332 3.74942,-2.42936 6.74685,-5.16896 9.32327,-8.83488 7.79233,-0.14868 11.19586,-4.04186 11.13327,-11.79442 2.28192,-3.05327 4.65326,-3.65347 7.7883,-0.77718 3.40057,2.17395 7.3952,0.0679 10.16718,3.18137 -7.82184,4.84541 -6.633,12.35104 -6.0918,19.63669 0.27606,3.71641 3.63443,4.96556 6.08356,7.36912 1.54629,3.80728 1.03076,7.54036 1.15646,11.66788 2.42932,3.74977 5.16873,6.74739 8.83472,9.3237 0.47888,0.41731 0.68109,0.61232 1.01971,0.96895 2.57489,3.45712 5.3143,6.45474 8.98029,9.03105 0.47174,0.42247 0.66742,0.62166 0.99606,0.983 z"
   id="path7533" />
<path
   fill="#0e0e06"
   opacity="1"
   stroke="none"
   d="m 224.78543,270.13962 c 3.27387,-1.30994 6.36272,-1.35654 9.84644,-0.3714 3.57792,5.16821 8.106,7.42413 14.10258,6.77637 1.8638,-0.20136 3.57216,0.36273 5.08281,2.19741 0.50102,0.44303 0.70322,0.63804 1.04187,0.99466 3.77411,5.73835 9.10318,7.13062 15.42529,6.82328 7.24057,-0.35202 14.51569,0.23233 21.7519,-0.5127 1.36898,-0.1409 2.50994,-0.1593 3.07251,1.76929 -0.29706,11.17285 -0.29706,11.17834 -10.9007,11.18161 -10.63818,0.003 -21.27698,-0.0707 -31.91431,0.0229 -4.13881,0.0364 -7.23329,-0.76065 -7.4471,-5.77643 -0.1334,-3.13031 -2.37821,-4.15415 -5.18119,-4.16895 -6.31577,-0.0333 -12.6319,-0.001 -18.94763,-0.0378 -3.6043,-0.0209 -5.61675,1.53333 -5.74711,5.30551 -0.0453,1.31107 -0.44574,2.60987 -0.81961,4.28782 -1.30273,1.64801 -2.66172,2.77719 -4.4201,2.79989 -6.92087,0.0893 -13.84305,0.15534 -20.7659,-0.008 -1.39137,-0.0329 -2.1539,-0.96408 -3.52489,-1.91305 -0.38418,-1.68836 -0.4761,-3.01056 -0.44342,-4.32969 0.0912,-3.67941 -1.24402,-6.03594 -5.30218,-6.24224 -3.24672,-0.16507 -4.65813,-2.06717 -4.55054,-5.25248 0.11485,-3.40026 2.17262,-4.59597 5.21132,-4.60943 7.26642,-0.0321 14.53305,-0.0147 22.27478,-0.006 5.77559,4.67883 5.91189,4.67587 10.60667,-0.82383 0.55266,-0.6474 1.1503,-1.34548 1.96224,-1.3486 4.65074,-0.018 6.90954,-3.3952 9.58627,-6.7579 z"
   id="path7535" />
<path
   fill="#0e0e06"
   opacity="1"
   stroke="none"
   d="m 425.00754,309.00766 c 0.0154,-4.80481 0.0629,-9.6153 0.0235,-14.42511 -0.03,-3.66946 1.61261,-5.59064 5.38067,-5.53885 1.82382,0.0251 3.65418,-0.12637 5.47208,-0.0259 5.01416,0.27713 9.45233,0.0412 9.4783,-6.81573 0.008,-2.08451 1.94415,-2.96854 3.94119,-3.05841 2.48383,-0.11182 4.97297,-0.12043 7.46006,-0.14383 7.73169,-0.0728 8.07214,-0.40647 8.23425,-8.65726 3.3e-4,-0.45093 0.007,-0.91779 0.017,-1.15103 3.55908,-3.02808 7.2211,-5.45249 8.3446,-10.54437 0.65897,-2.98668 7.14612,-2.93445 11.27045,-0.0299 0.3031,4.59738 0.27148,8.91666 0.35199,13.23385 0.0758,4.06339 -1.55978,6.41892 -5.89612,6.03 -3.68387,-0.33038 -5.10702,1.30969 -5.0777,4.90421 0.0303,3.72101 1.20301,6.01053 5.35575,6.18847 4.95822,0.21253 9.97741,-0.6156 15.25924,0.92521 2.98252,3.21713 5.83963,5.73413 9.87104,7.03762 3.75662,1.21467 4.16522,7.09876 0.83203,11.78229 -0.30823,0.31772 -0.32477,0.27222 -0.30057,0.27225 -1.49258,1.81821 -3.40714,2.57709 -5.79465,2.50671 -2.63513,-0.0776 -5.28405,-0.12033 -7.91556,0.0214 -4.13879,0.22299 -7.36422,-0.50037 -8.45483,-5.34656 -0.81595,-3.62583 -4.83932,-4.27057 -7.47739,-6.84574 -10.04705,-0.3114 -19.789,-0.31127 -30.0057,-0.30813 -4.08377,2.72626 -7.77625,5.36676 -10.16031,9.7865 -0.23499,0.24939 -0.21414,0.19748 -0.18817,0.18704 -2.86023,2.75888 -5.90238,3.57404 -9.63605,0.36481 -0.39944,-0.36392 -0.39047,-0.35492 -0.38516,-0.34952 z"
   id="path7537" />
<path
   fill="#0e0e06"
   opacity="1"
   stroke="none"
   d="m 405.43817,178.98563 c -0.47851,-8.66108 -0.47851,-8.66108 -10.11151,-9.19007 -0.46118,-2.18344 -0.39065,-4.31953 -0.49005,-6.44768 -0.0917,-1.96394 -0.97168,-3.88113 -3.02112,-3.93653 -6.56055,-0.17731 -7.2034,-4.38117 -6.70535,-10.32737 2.87774,-2.9774 5.55386,-3.02424 8.60205,-0.46505 0.59906,0.57031 0.80237,0.76645 1.14297,1.12503 2.5853,2.98147 5.0373,5.64261 9.19715,5.95648 2.98919,0.22554 3.26837,2.77536 3.58352,5.14255 0.15003,1.12721 0.35752,2.61105 1.75232,2.63473 1.79148,0.0304 1.8187,-1.68039 1.92172,-2.94198 0.28712,-3.51593 -0.25677,-6.65546 -4.22232,-7.96849 -1.03811,-0.34372 -2.41451,-0.42269 -2.18331,-2.46325 0.21334,-3.68415 -0.21692,-7.06654 0.86972,-10.72447 5.42697,-4.74856 9.58258,-3.75888 12.11099,2.47542 2.14447,5.2876 10.79861,6.35133 14.6084,1.7607 1.04242,-1.25611 1.57867,-2.89325 3.13601,-4.25347 8.30265,-0.54002 8.30265,-0.54002 10.14493,-9.98587 3.35214,-2.62207 5.33725,-5.97587 7.99317,-9.20824 5.80276,-1.82675 11.47634,-1.16274 17.10998,-0.94867 2.84171,0.10797 3.97278,2.06134 3.97479,4.77116 0.002,2.7046 -1.1102,4.59515 -3.95684,4.79678 -3.15024,0.22308 -6.32322,0.29335 -9.48035,0.20869 -4.34854,-0.11662 -6.58237,1.70275 -6.39942,6.20357 0.0811,1.99403 -0.117,4.00134 -3.6e-4,5.99162 0.26715,4.55873 -0.76532,7.89099 -6.26636,8.05844 -2.32541,0.0708 -3.52795,1.84505 -3.62277,4.07398 -0.18167,4.27061 -2.52365,5.71686 -6.51969,5.67735 -14.4971,-0.14331 -13.73309,-0.80122 -13.58938,13.48935 0.0472,4.69859 -1.99573,6.68242 -6.62177,6.52007 -4.1571,-0.14589 -8.32351,-0.0251 -12.95712,-0.0248 z"
   id="path7539" />
<path
   fill="#0e0e06"
   opacity="1"
   stroke="none"
   d="m 315.40912,278.20587 c -0.37695,-8.92145 -0.13574,-9.1709 8.51895,-9.20193 1.99939,-0.007 4.00125,0.0802 5.99789,0.009 3.78983,-0.13431 6.05497,1.31054 6.1398,5.41146 0.0567,2.74131 1.54429,4.3165 4.31434,4.54941 2.99575,0.25186 4.51715,1.88678 4.59524,4.85498 0.0917,3.48841 1.87717,5.17664 5.33518,5.15564 3.25878,-0.0197 5.47155,1.16001 5.7489,4.7815 0.21597,2.81997 1.97253,4.11352 4.66397,4.19091 3.43524,0.0988 5.21539,1.75071 5.30762,5.23322 0.0973,3.67331 2.38461,4.81113 5.66262,4.77863 2.16571,-0.0214 4.33753,0.12673 6.49695,0.014 4.49317,-0.23452 7.97516,0.52939 8.01608,6.19956 0.0189,2.62045 2.03705,3.70526 4.45908,3.76056 4.15845,0.0949 5.41483,2.49041 5.32544,6.2218 -0.11166,4.66269 -0.10123,9.32825 -0.19449,14.47009 -0.051,0.47751 -0.47671,0.39499 -0.68854,0.34854 -2.7351,-3.83532 -5.56359,-7.3201 -9.91568,-9.76901 -0.24878,-0.23459 -0.19567,-0.21146 -0.18411,-0.18491 -3.57788,-6.8583 -9.58621,-8.35406 -16.6926,-7.57364 -3.24059,0.3559 -5.51965,-0.78631 -5.94299,-4.40985 -0.47107,-4.03213 -4.24725,-5.11471 -6.99283,-7.63086 -0.32403,-1.75518 -0.42022,-3.24459 -0.40173,-4.7326 0.0493,-3.9704 -1.97418,-5.72504 -5.83975,-5.65186 -1.98477,0.0376 -3.97724,-0.12506 -5.95603,-0.0146 -4.61837,0.25781 -8.28222,-0.48572 -8.44574,-6.31668 -0.0649,-2.31391 -1.86795,-3.45163 -4.07473,-3.58069 -3.49939,-0.20474 -5.4776,-1.72431 -5.73639,-5.43399 -0.42569,-6.10263 -5.84,-3.99146 -9.51645,-5.4791 z"
   id="path7541" />
<path
   fill="#313a25"
   opacity="1"
   stroke="none"
   d="m 185.07486,299.58057 c 9.34433,-0.48114 18.67238,-0.52399 28.47055,-0.57132 0.48842,7.98782 0.47185,15.98043 0.5423,23.97226 0.0279,3.16699 -1.07093,5.14749 -4.55611,5.12768 -3.43805,-0.0195 -4.59918,1.88822 -4.55694,5.11527 0.085,6.49292 -0.0323,12.98819 0.01,19.48202 0.0222,3.41077 -0.1151,6.24594 -4.84625,6.31055 -5.01188,0.0684 -5.16933,-2.91828 -5.12948,-6.53601 0.066,-5.99381 -0.0995,-11.99136 0.0335,-17.98285 0.081,-3.64789 -1.06202,-5.79923 -5.08764,-5.52924 -3.66364,0.2457 -4.98548,-1.58532 -4.94371,-5.14688 0.0398,-3.39645 1.44821,-4.95672 4.79905,-4.78756 3.42437,0.17282 5.2527,-1.06589 5.23284,-4.86695 -0.0184,-3.51559 -1.17896,-5.30887 -4.89785,-5.20624 -7.17013,0.19794 -4.57553,-5.28173 -5.07017,-9.38073 z"
   id="path7543" />
<path
   fill="#0e0e06"
   opacity="1"
   stroke="none"
   d="m 384.42297,408.94791 c 0.50104,1.48257 0.60736,2.97659 0.59568,4.46963 -0.026,3.31494 1.23852,5.4772 4.8565,5.56229 3.49887,0.0823 5.07001,1.94217 5.17102,5.33401 0.0895,3.00614 1.7442,4.57596 4.71707,4.64774 4.17655,0.10083 5.25834,2.5574 5.22788,6.26144 -0.0295,3.59424 -1.35828,5.70151 -5.17542,5.80585 -3.64825,0.0997 -4.80828,2.35208 -4.78582,5.62961 0.0159,2.32425 -0.0587,4.64902 -0.0802,6.97366 -0.0282,3.0585 -1.11719,5.14252 -4.57352,5.25729 -3.16,0.10492 -5.15634,-1.12176 -5.3197,-4.47732 -0.16016,-3.28897 -1.41739,-5.3407 -5.10034,-5.31772 -3.71491,0.0232 -4.92536,2.13922 -4.95554,5.41965 -0.0609,6.61752 -4.98535,5.27356 -9.39862,5.48413 -4.97766,-2.26499 -2.59042,-6.09027 -2.44696,-9.828 0.0779,-2.34922 1.01038,-3.29343 2.89108,-3.7392 4.02451,-0.95392 5.81299,-3.78601 5.99631,-8.21906 0.75204,-7.73904 0.33942,-15.06591 0.4754,-22.38079 0.0406,-2.18158 -0.10611,-4.39618 1.99042,-6.41684 3.36685,-0.36841 6.41669,-0.4119 9.91473,-0.46637 z"
   id="path7545" />
<path
   fill="#0e0e06"
   opacity="1"
   stroke="none"
   d="m 375.79211,259.42413 c 8.92875,-0.39193 9.16266,-0.16183 9.20725,8.50742 0.009,1.83316 0.0601,3.66669 0.0372,5.49933 -0.0419,3.34616 1.28595,5.45361 4.89856,5.56054 3.19003,0.0944 4.96005,1.64508 5.05411,4.9162 0.0914,3.17768 1.60693,4.97681 4.89084,5.07978 3.47811,0.10904 5.1524,1.83621 5.01446,5.38195 -0.14969,3.84623 -2.63531,4.6019 -5.78403,4.59971 -6.16632,-0.004 -12.33276,0.0111 -18.49893,-0.0193 -2.2384,-0.011 -4.78357,-0.23383 -5.21975,-2.84274 -0.72571,-4.34027 -3.44025,-5.25904 -7.15507,-5.20078 -1.35452,0.0212 -2.64813,-0.34183 -3.80416,-1.74332 1.28576,-0.26071 2.78408,-0.26705 4.27764,-0.18585 4.44275,0.24161 6.2223,-1.87756 6.32062,-6.27426 0.17069,-7.63043 -0.75836,-15.29712 0.76129,-23.27872 z"
   id="path7547" />
<path
   fill="#331f07"
   opacity="1"
   stroke="none"
   d="m 484.93353,258.45715 c -2.01486,0.52542 -4.01739,0.54535 -6.00689,0.71659 -2.06162,0.17743 -3.22141,1.35125 -3.74381,3.40585 -1.74252,6.85388 -1.78366,6.84341 -9.74014,6.39468 -0.44138,-1.68145 -0.48999,-3.34701 -0.48245,-5.01232 0.0133,-2.93448 -1.14829,-4.90619 -4.3266,-4.89914 -4.40577,0.01 -5.68711,-2.41669 -5.64273,-6.40154 0.10385,-9.32658 0.0711,-18.6553 0.0176,-27.98271 -0.0205,-3.57652 1.16214,-5.70694 5.18186,-5.63155 3.7474,0.0703 4.91089,2.12128 4.90411,5.44187 -0.0109,5.32997 0.0145,10.66009 0.039,15.99008 0.0366,7.96182 0.29297,8.22423 8.02701,8.40985 0.99909,0.024 1.99787,0.0597 2.99695,0.0826 8.85263,0.20326 8.85263,0.20276 8.77606,9.4857 z"
   id="path7549" />
<path
   fill="#0e0e06"
   opacity="1"
   stroke="none"
   d="m 284.83548,249.75073 c -0.18884,5.18767 0.14505,9.53391 6.98553,9.63272 2.64777,0.0382 3.04129,2.67142 3.20853,4.91367 0.1788,2.39789 1.11371,4.47031 3.73264,4.48297 6.0382,0.0293 6.54278,3.84717 6.21682,8.8645 -0.18695,0.65961 -0.37603,0.8646 -0.72067,1.21094 -3.72656,2.94711 -15.5293,4.05682 -19.34439,1.42432 -0.014,-2.52332 0.0381,-4.5221 -0.022,-6.51752 -0.0815,-2.70807 -1.40521,-4.46402 -4.20484,-4.6377 -3.52191,-0.21844 -5.59546,-1.72696 -5.75222,-5.47003 -0.1261,-3.01105 -1.91379,-4.48425 -4.83176,-4.63351 -3.85156,-0.19705 -5.09546,-2.50016 -5.07987,-5.99648 0.0193,-4.32861 -0.0634,-8.65768 -0.0326,-13.8828 2.75827,-3.24188 5.99808,-2.67601 9.08863,-2.41674 1.42538,0.11955 2.79065,0.80804 3.08981,2.70182 0.62796,3.97544 3.36984,6.55842 6.61856,9.26983 0.52344,0.49348 0.71912,0.69267 1.04776,1.05401 z"
   id="path7551" />
<path
   fill="#0e0e06"
   opacity="1"
   stroke="none"
   d="m 264.94434,239.06061 c -3.36878,0.0192 -6.68375,-0.0172 -10.4535,-0.056 -2.67709,2.39922 -5.06608,3.07627 -8.13842,0.35015 -3.76813,-0.34678 -7.14777,-0.34099 -10.99115,-0.33153 -3.21349,3.10286 -6.25718,3.0334 -9.88263,0.48311 -0.65332,-10.4768 -0.65332,-10.4768 -11.0152,-10.49683 -2.65746,2.41557 -5.03455,3.06575 -8.08969,0.35156 -2.51087,-8.51172 -1.21211,-10.31221 6.9568,-10.34732 6.60754,-0.0284 13.21547,0.0285 20.29829,0.0592 4.04935,6.84887 10.09745,7.75959 17.05906,7.56481 4.25416,-0.11901 8.96856,-1.69351 13.11801,2.07383 0.51239,0.47352 0.7146,0.66855 1.05322,1.02516 2.75269,2.64226 3.35037,5.35771 0.66138,8.77762 -0.41446,0.37962 -0.52234,0.49067 -0.57617,0.54631 z"
   id="path7553" />
<path
   fill="#0e0e06"
   opacity="1"
   stroke="none"
   d="m 415.11362,269.32117 c -10.11075,-1.45295 -10.11426,-1.45295 -10.11185,-12.08368 9.5e-4,-4.16159 0.0541,-8.32341 0.0228,-12.48468 -0.0245,-3.25391 1.0571,-5.49892 4.69076,-5.80225 3.11997,-0.26045 4.19083,-2.2896 4.22775,-5.14397 0.0603,-4.65976 0.13898,-9.31926 0.26099,-14.45822 10.78922,-0.074 10.79413,-0.074 10.79321,10.96265 -3.6e-4,4.32225 -0.0424,8.64453 -0.0391,12.96677 0.003,3.26939 -1.20367,5.51319 -4.80524,5.69346 -3.81524,0.19097 -5.16296,2.41904 -5.12307,5.93956 0.0527,4.65398 0.0428,9.30867 0.0837,14.41036 z"
   id="path7555" />
<path
   fill="#313a25"
   opacity="1"
   stroke="none"
   d="m 315.93832,139.46638 c 4.83829,-0.66487 9.58185,-0.99859 9.31858,6.1914 -0.10034,2.74012 2.36142,3.33549 4.65976,3.316 3.93777,-0.0334 5.1575,2.14423 5.08181,5.706 -0.0879,4.1369 -0.006,8.2774 0.003,12.88795 -3.04184,0.51892 -6.08399,0.56623 -9.58237,0.62903 -0.61069,0.11153 -0.76511,0.20757 -1.06241,0.53603 -0.18805,5.04736 -0.23935,9.86227 -0.276,14.67727 -0.02,2.6258 -0.75122,4.52127 -3.89957,4.59624 -3.38208,0.0805 -4.27395,-1.84175 -4.27163,-4.73332 0.0115,-14.44611 0.006,-28.89221 0.0287,-43.8066 z"
   id="path7557" />
<path
   fill="#331f07"
   opacity="1"
   stroke="none"
   d="m 373.7944,438.56299 c 0.18921,0.99075 0.1854,1.47897 0.17893,1.96716 -0.10569,7.99094 -0.27991,8.17185 -8.65543,8.55109 -2.53189,2.78711 -5.48761,2.44073 -8.82437,2.20685 -7.3942,0.2547 -7.99789,0.69247 -9.65805,7.27551 -0.30127,1.19467 -1.10523,1.48303 -2.42868,1.95312 -3.09772,1.30121 -5.9245,0.88379 -9.21045,0.87867 -3.84369,0.0105 -7.25055,0.47476 -10.74387,-1.66373 -1.87756,-3.32565 -2.65951,-6.30127 -0.0811,-9.57254 3.5668,-0.24863 6.65256,-0.25965 10.19861,-0.27149 0.61679,-0.1297 0.77334,-0.2586 1.12253,-0.62298 0.18814,-2.96463 0.18368,-5.69385 0.17446,-8.87848 -0.0728,-0.63086 -0.14083,-0.80627 0.0209,-1.14545 9.58322,-0.22015 18.93661,-0.27649 28.76489,-0.3782 3.08408,-2.70416 5.90436,-2.99936 9.14157,-0.29953 z"
   id="path7559" />
<path
   fill="#331f07"
   opacity="1"
   stroke="none"
   d="m 505.46146,309.05896 c -0.49509,-1.99277 -0.48838,-3.96686 -0.61307,-5.93259 -0.14319,-2.25708 -1.36038,-3.91952 -3.63953,-3.91848 -5.94073,0.003 -6.51846,-3.75116 -6.20022,-8.72754 4.81292,-0.44065 9.62545,-0.40219 14.4367,-0.46509 3.26169,-0.0426 5.50247,0.98495 5.72251,4.65753 0.15112,2.52213 1.52972,4.00018 4.08142,4.14343 3.57391,0.20059 4.95459,2.24884 4.8656,5.57303 -0.0991,3.70288 1.63067,5.50015 5.36725,5.5513 2.99591,0.041 4.55737,1.62137 4.49499,4.71561 -0.0647,3.20453 -1.95984,4.3435 -4.83691,4.40106 -2.32227,0.0465 -4.65186,-0.0587 -6.96692,0.0855 -4.44708,0.27704 -7.10565,-0.90054 -7.55078,-6.1239 -0.4737,-5.55841 -5.45673,-3.3248 -9.16104,-3.9599 z"
   id="path7561" />
<path
   fill="#331f07"
   opacity="1"
   stroke="none"
   d="m 435.45114,139.07292 c 0.44419,1.83412 0.49732,3.65154 0.42844,5.46433 -0.10547,2.77559 -1.63559,4.24168 -4.38126,4.33693 -2.80423,0.0973 -5.61749,-0.0113 -8.41754,0.14082 -4.60748,0.2503 -7.94659,-0.44533 -8.39276,-6.30689 -0.36341,-4.77368 -4.79053,-3.38916 -8.3389,-3.7071 -0.4317,-8.81409 -0.31061,-8.94864 8.22791,-9.14777 0.60376,-0.117 0.76333,-0.23511 1.09893,-0.5934 0.15299,-3.24143 0.12995,-6.24268 0.0903,-9.69061 -0.73496,-1.74013 -1.82322,-2.69247 -2.00739,-4.43423 -0.77908,-7.36879 2.39658,-9.84337 10.04361,-6.76436 0.57541,8.35816 0.21191,16.12182 0.91812,23.90901 0.46387,5.11451 2.23963,7.2997 7.30643,6.74269 0.9798,-0.10771 1.98492,0.0153 3.42407,0.0506 z"
   id="path7563" />
<path
   fill="#331f07"
   opacity="1"
   stroke="none"
   d="m 264.11475,228.52946 c -7.10154,0.46817 -14.19742,0.48427 -21.29319,0.4647 -8.51983,-0.0235 -8.82888,-0.35561 -8.73735,-9.47057 11.43612,-0.84668 11.95687,1.44466 11.80333,-12.54596 -0.0109,-0.99274 0.035,-1.99036 0.12602,-2.97913 0.20726,-2.25232 1.26871,-3.75772 3.69712,-3.87666 2.61593,-0.12811 4.21423,1.20726 4.25305,3.76694 0.0617,4.06936 1.77716,6.10432 5.98238,6.12849 2.85897,0.0164 4.05255,1.94281 4.08908,4.61974 0.061,4.47442 0.0602,8.94967 0.0796,13.89245 z"
   id="path7565" />
<path
   fill="#313a25"
   opacity="1"
   stroke="none"
   d="m 475.05926,299.48267 c 1.84632,-0.46241 3.67566,-0.40616 5.50147,-0.46387 3.36713,-0.10642 5.49872,1.13657 5.41959,4.83231 -0.0839,3.91564 2.05114,5.23172 5.66394,5.14941 4.15179,-0.0945 8.30761,-0.0108 12.9335,-0.007 0.67892,9.99133 0.67892,9.99115 -9.03949,10.00381 -1.49613,0.002 -3.00073,0.11112 -4.48669,-0.0101 -4.03376,-0.32901 -6.44745,0.95417 -6.09763,5.51148 0.27283,3.55447 -1.80267,4.49945 -4.99735,4.50155 -3.26608,0.002 -4.97616,-1.12106 -4.9411,-4.61465 0.0818,-8.14453 0.0255,-16.29041 0.0438,-24.90295 z"
   id="path7567" />
<path
   fill="#313a25"
   opacity="1"
   stroke="none"
   d="m 435.46875,418.92059 c -0.43579,-4.83972 -0.39691,-9.66147 -0.42365,-14.48282 -0.0168,-3.02951 0.84913,-5.2929 4.36704,-5.3937 3.04355,-0.0872 4.20639,-1.70771 4.75052,-4.63233 0.89184,-4.7937 0.84393,-9.58664 0.8598,-14.85791 9.94721,-0.6597 9.94968,-0.6597 9.9548,9.00968 0.003,4.80099 -0.15686,9.60809 0.0367,14.40112 0.16406,4.06201 -1.09021,6.35742 -5.57315,6.07693 -2.08667,-0.13058 -3.79486,0.39591 -4.36234,2.99802 -1.52191,6.97864 -1.6134,6.95868 -9.60977,6.88101 z"
   id="path7569" />
<path
   fill="#0e0e06"
   opacity="1"
   stroke="none"
   d="m 324.37817,459.21289 c 3.69794,-0.20102 6.76294,-0.17752 10.28937,-0.13089 3.47513,3.85233 3.88876,14.75119 0.81217,19.49042 -11.52497,0.37131 -22.67524,0.39407 -33.82551,0.40509 -3.40011,0.003 -6.47552,-0.42508 -6.50845,-4.92215 -0.0326,-4.46121 2.9415,-5.0329 6.39774,-5.03433 4.49344,-0.002 8.98688,-0.0144 13.94607,-0.0191 3.74118,-2.63333 7.10034,-5.20178 8.88861,-9.78903 z"
   id="path7571" />
<path
   fill="#313a25"
   opacity="1"
   stroke="none"
   d="m 514.74658,221.57352 c 0.13599,11.08809 0.12134,21.74015 0.25726,32.39033 0.0459,3.60106 -1.40716,5.05296 -5.04855,5.05541 -3.71432,0.002 -5.01516,-1.61728 -4.96213,-5.14499 0.10004,-6.65633 -0.0671,-13.31642 0.009,-19.97345 0.0374,-3.28639 -1.20978,-5.08856 -4.6658,-4.88326 -3.67337,0.21822 -5.50293,-1.16032 -5.47388,-5.16685 0.0301,-4.15503 2.233,-5.07514 5.72565,-4.97428 3.16,0.0913 6.32532,-0.0115 9.4866,0.0524 1.82773,0.0369 3.75153,0.0296 4.67212,2.64473 z"
   id="path7573" />
<path
   fill="#331f07"
   opacity="1"
   stroke="none"
   d="m 284.43805,279.776 c 6.5217,-0.83966 12.61673,-0.85544 19.19336,-0.77414 0.45456,8.83005 0.41507,8.87463 -8.09436,9.21542 -12.01987,1.52054 -23.65613,0.55872 -35.26926,0.7082 -5.9202,0.0762 -5.16913,-4.34375 -5.26492,-8.5835 9.65832,-0.48196 19.31689,-0.51291 29.43518,-0.56598 z"
   id="path7575" />
<path
   fill="#016300"
   opacity="1"
   stroke="none"
   d="m 455.56671,478.98804 c -0.47583,-9.6619 -0.51071,-19.32007 -0.53418,-29.44159 4.44177,-0.49002 8.87223,-0.55158 13.30243,-0.5351 6.60391,0.0246 6.61151,0.054 6.65576,6.53284 0.006,0.82034 -0.0161,1.6409 -0.0445,2.90497 -0.68039,1.17666 -1.22452,2.10775 -2.13297,2.49719 -4.57828,1.96231 -5.35012,5.80695 -5.3363,10.19153 0.008,2.56637 0.58063,5.38211 -2.2897,7.53412 -3.25617,0.27652 -6.21787,0.29815 -9.62055,0.31604 z"
   id="path7577" />
<path
   fill="#313a25"
   opacity="1"
   stroke="none"
   d="m 355.08417,309.60632 c 1.67935,-0.47842 3.34308,-0.49942 5.0068,-0.52044 2.97916,-0.0377 4.86295,1.25747 4.80338,4.39727 -0.085,4.48105 2.38489,5.78833 6.3576,5.55179 1.49234,-0.0889 2.995,-0.003 4.49295,10e-4 9.11213,0.0248 9.11213,0.0246 9.26255,9.56882 -8.10681,0.4161 -16.22788,0.26767 -24.34467,0.39377 -3.98047,0.0618 -5.82071,-1.39518 -5.65063,-5.51432 0.18441,-4.4667 0.0511,-8.94647 0.072,-13.87796 z"
   id="path7579" />
<path
   fill="#313a25"
   opacity="1"
   stroke="none"
   d="m 581.53674,280.06036 c 2.68921,2.61042 3.71766,14.87934 1.76935,16.94843 -1.43982,1.52902 -3.37097,1.18954 -5.16308,0.85773 -2.16736,-0.40128 -2.36219,-2.25724 -2.25214,-3.89774 0.35327,-5.26816 -2.73059,-5.99368 -6.96643,-5.78659 -3.02246,0.14777 -4.73254,1.25323 -4.70441,4.4382 0.0272,3.06577 -0.31445,5.67621 -4.49219,5.5018 -4.40619,-0.18393 -3.89569,-3.32101 -3.89221,-6.06909 0.0174,-13.89438 -1.20831,-12.09793 11.78253,-12.23752 4.48908,-0.0483 8.98035,0.0962 13.91858,0.24478 z"
   id="path7581" />
<path
   fill="#331f07"
   opacity="1"
   stroke="none"
   d="m 536.16992,253.58517 c 0.63117,-2.80366 2.25513,-3.59835 4.52704,-3.34648 2.53107,0.28063 3.18903,2.10266 3.29407,4.24222 0.17578,3.58183 1.88916,5.49007 5.58118,5.558 2.75939,0.0507 4.28185,1.42453 4.31701,4.32257 0.0335,2.76151 -1.11529,4.49573 -3.96783,4.6872 -3.2464,0.21795 -4.75513,1.90249 -4.81726,5.10119 -0.0617,3.1734 -1.52497,4.97428 -4.92047,4.81625 -3.66218,-0.17044 -4.15668,-2.67559 -4.15015,-5.54837 0.0147,-6.46847 0.0503,-12.93689 0.13641,-19.83258 z"
   id="path7583" />
<path
   fill="#313a25"
   opacity="1"
   stroke="none"
   d="m 355.93896,189.44347 c 2.84162,-0.4446 5.6615,-0.44637 8.48139,-0.4426 9.2854,0.0124 9.2854,0.0132 9.78619,9.61815 -0.006,5.24466 -0.0774,10.03827 -0.12661,14.83208 -0.0269,2.62739 -0.78888,4.48522 -3.90986,4.55525 -3.36135,0.0754 -4.25891,-1.83034 -4.26193,-4.71225 -0.005,-4.46392 -0.0579,-8.92778 -0.10663,-13.86209 -0.11136,-0.62441 -0.20663,-0.77839 -0.53363,-1.07407 -0.55938,-0.15366 -0.88699,-0.16841 -1.21475,-0.17714 -8.15536,-0.21675 -8.15536,-0.21664 -8.11417,-8.73733 z"
   id="path7585" />
<path
   fill="#016300"
   opacity="1"
   stroke="none"
   d="m 374.1976,438.70178 c -2.86697,0.29178 -5.52502,0.21985 -8.62649,0.13165 -0.46644,-6.953 -0.50443,-13.8897 -0.5087,-20.82644 -0.006,-8.94827 0.006,-8.94827 9.32614,-8.92508 0.35937,9.7579 1.12021,19.52039 -0.19095,29.61987 z"
   id="path7587" />
<path
   fill="#331f07"
   opacity="1"
   stroke="none"
   d="m 224.52936,269.88525 c 0.83316,5.06461 0.50548,9.5362 -6.37909,9.4459 -1.60732,-0.0211 -2.60373,1.36709 -3.05783,2.92059 -1.30957,4.48016 -4.92832,3.81833 -8.20464,3.54767 -3.62562,-0.29959 -3.86806,-3.06616 -3.79562,-6.30722 0.44551,-0.90921 1.06329,-1.33725 1.282,-1.91611 2.9069,-7.69357 2.89297,-7.70013 11.19961,-7.70477 2.82919,-0.002 5.6584,0.005 8.95557,0.0139 z"
   id="path7589" />
<path
   fill="#331f07"
   opacity="1"
   stroke="none"
   d="m 265.54279,238.91559 c -0.47172,-2.71686 -0.50669,-5.41205 -0.5409,-8.56592 4.64145,-0.44576 9.28214,-0.41814 13.92279,-0.42471 3.49936,-0.005 5.16248,1.73849 5.15424,5.20915 -0.0102,4.30916 0.0249,8.61842 0.0353,13.39543 -4.89359,0.73517 -8.94013,0.63428 -9.57138,-6.17102 -0.44727,-4.82162 -5.41764,-2.85754 -9.00003,-3.44293 z"
   id="path7591" />
<path
   fill="#331f07"
   opacity="1"
   stroke="none"
   d="m 404.45904,149.77756 c 3.35093,0.69365 7.60053,-1.07784 8.83237,2.71199 1.48072,4.55554 1.25403,9.5458 -0.0117,14.24315 -0.55102,2.04496 -2.69754,2.24183 -4.6177,2.03192 -2.12729,-0.23259 -3.49823,-1.5669 -3.44135,-3.59923 0.13785,-4.92363 -1.93756,-7.09923 -6.95865,-7.57071 -3.83337,-0.35997 -3.06286,-4.08488 -3.25933,-7.25688 3.00137,-0.4715 6.00595,-0.50429 9.45635,-0.56024 z"
   id="path7593" />
<path
   fill="#331f07"
   opacity="1"
   stroke="none"
   d="m 344.11475,137.52911 c -8.93934,0.3916 -9.08725,0.24417 -9.11212,-8.77757 -0.009,-3.1369 -0.0157,-6.27395 0.003,-9.41077 0.0474,-7.76061 0.33707,-8.05191 8.49817,-8.3121 0.49414,8.66629 0.55518,17.34926 0.61051,26.50044 z"
   id="path7595" />
<path
   fill="#313a25"
   opacity="1"
   stroke="none"
   d="m 205.96701,229.47491 c 2.39902,-0.46403 4.7758,-0.46063 7.59818,-0.46232 0.46362,7.99415 0.4835,15.99342 0.49865,23.99269 0.005,2.77791 -0.61136,4.97342 -4.09594,4.95767 -3.5102,-0.0158 -4.03225,-2.27891 -4.03269,-5.02167 -0.001,-7.6663 0.006,-15.33261 0.0318,-23.46637 z"
   id="path7597" />
<path
   fill="#313a25"
   opacity="1"
   stroke="none"
   d="m 524.099,334.28302 c 0.008,6.44861 10e-4,12.4299 10e-4,18.41119 -1.2e-4,2.88504 -0.37348,5.36582 -4.21362,5.3086 -3.52662,-0.0526 -3.97437,-2.32373 -3.97681,-5.03629 -0.006,-6.31347 -0.005,-12.62698 -6e-5,-18.94046 0.002,-2.71637 0.4599,-4.9834 3.98437,-5.02966 3.42817,-0.045 4.21314,1.98184 4.20496,5.28662 z"
   id="path7599" />
<path
   fill="#0e0e06"
   opacity="1"
   stroke="none"
   d="m 424.20065,108.59142 c -7.88632,0.63553 -7.88632,0.63553 -8.40045,10.07458 -0.3754,0.44138 -0.70022,0.42202 -1.0253,0.41168 -9.61142,-0.30591 -9.61142,-0.30577 -9.85873,-10.39424 -0.15549,-1.68139 0.0184,-2.71577 1.49615,-3.05093 3.10706,-0.70471 5.09995,-2.95904 7.34864,-5.45749 0.87316,-0.456247 1.49612,-0.702753 2.14202,-0.806925 7.85965,-1.267608 9.86005,0.841085 8.29767,9.223325 z"
   id="path7601" />
<path
   fill="#0e0e06"
   opacity="1"
   stroke="none"
   d="m 343.82162,459.34631 c 0.14557,-1.45349 0.13028,-2.43249 0.15613,-3.41046 0.15873,-6.00201 0.97614,-6.83914 6.80414,-6.93533 1.14069,-0.0188 2.28259,0.0371 3.88553,0.0816 3.47525,3.85218 3.88888,14.75104 0.81229,19.4903 -3.39045,0.38324 -6.40616,0.41336 -9.86875,0.44665 -4.99927,-2.40921 -2.85239,-5.90237 -1.78934,-9.67279 z"
   id="path7603" />
<path
   fill="#0e0e06"
   opacity="1"
   stroke="none"
   d="m 326.46283,99.380981 c -2.56165,-0.412269 -4.70758,-0.398567 -6.84732,-0.507186 -2.99091,-0.151825 -4.44943,-1.795449 -4.47046,-4.785622 -0.0206,-2.937859 1.26767,-4.753464 4.30679,-4.928932 2.46701,-0.142441 4.94449,-0.162247 7.41669,-0.144478 7.767,0.0558 8.83054,1.386001 7.36392,9.611717 -2.33047,2.57519 -4.62497,3.93148 -7.76962,0.754501 z"
   id="path7605" />
<path
   fill="#016300"
   opacity="1"
   stroke="none"
   d="m 385.63629,498.95187 c 2.97479,-0.0421 5.75595,0.0587 8.99787,0.22043 0.44277,5.15903 0.29959,10.26087 0.44699,15.35425 0.11526,3.98267 -2.14225,4.47803 -5.35334,4.50171 -3.25897,0.024 -5.00879,-1.04315 -4.79711,-4.53015 0.0894,-1.47266 -0.0374,-2.95847 -0.0946,-4.87705 -2.27289,-3.09079 -3.28479,-5.84768 -0.38864,-9.35483 0.53735,-0.71975 0.74902,-0.96072 1.18878,-1.31436 z"
   id="path7607" />
<path
   fill="#016300"
   opacity="1"
   stroke="none"
   d="m 344.99017,479.48129 c 11.33396,-0.53308 9.85889,-1.11978 10.00623,9.35742 0.0211,1.49784 -0.10929,3.00531 0.0158,4.49271 0.32333,3.84512 -0.85114,5.793 -5.23096,5.75223 -4.32022,-0.0402 -4.90186,-2.24448 -4.8027,-5.68732 0.12933,-4.49087 0.0364,-8.98816 0.0116,-13.91504 z"
   id="path7609" />
<path
   fill="#0e0e06"
   opacity="1"
   stroke="none"
   d="m 465.34564,478.93762 c -0.41504,-4.49591 -0.099,-9.00064 -0.41293,-13.46103 -0.35654,-5.06616 1.66052,-7.10638 6.6178,-6.49652 0.81601,0.10037 1.65896,-0.0181 2.93292,-0.0614 0.46728,3.60037 0.51782,7.22675 0.50967,10.853 -0.0199,8.83117 -0.39813,9.19751 -9.64746,9.16592 z"
   id="path7611" />
<path
   fill="#016300"
   opacity="1"
   stroke="none"
   d="m 343.52365,458.91443 c 2.24075,2.87204 1.1203,6.14038 1.60013,9.66397 -0.0202,3.48126 -0.0808,6.51865 -0.15125,10.01327 -0.01,0.45725 0.0271,0.41904 0.0462,0.40058 -2.99308,-0.0211 -6.00516,-0.0237 -9.46546,-0.0465 -0.4609,-6.32114 -0.4736,-12.62204 -0.45526,-19.38178 2.68262,-0.50802 5.33426,-0.55725 8.42569,-0.64953 z"
   id="path7613" />
<path
   fill="#016300"
   opacity="1"
   stroke="none"
   d="m 355.5423,468.94556 c -0.44998,-6.32096 -0.46268,-12.62186 -0.44434,-19.3816 2.98312,-0.46969 5.93524,-0.48062 9.33026,-0.47515 0.51361,3.34402 0.58438,6.6716 0.69623,10.45434 0.0185,2.87189 -0.004,5.2887 0.0189,8.16312 -2.91827,1.94058 -6.08926,1.04584 -9.60101,1.23929 z"
   id="path7615" />
<path
   fill="#0e0e06"
   opacity="1"
   stroke="none"
   d="m 384.94733,149.05737 c -1.52918,0.003 -3.00452,-0.0949 -4.47989,-0.0945 -3.66199,10e-4 -5.45157,-1.82427 -5.40592,-5.45961 0.0575,-4.57926 -0.5209,-9.18642 0.71073,-14.11207 2.38696,-2.70085 4.80795,-3.4349 7.93307,-0.76919 1.60672,3.6348 1.20859,7.03639 1.29669,10.83548 2.61682,2.92389 3.1991,5.63815 0.52112,9.05502 -0.41412,0.37851 -0.52197,0.48931 -0.5758,0.54483 z"
   id="path7617" />
<path
   fill="#331f07"
   opacity="1"
   stroke="none"
   d="m 482.46985,218.91862 c -4.24265,0.0881 -8.04944,0.15224 -11.85507,0.11036 -2.97245,-0.0327 -4.61686,-1.49205 -4.59174,-4.6027 0.0255,-3.16232 1.82861,-4.43423 4.73877,-4.4718 3.47574,-0.0449 6.953,-0.0514 10.4285,1.6e-4 2.10177,0.0312 4.09167,0.55102 4.57837,2.95246 0.52761,2.60372 0.31311,5.03519 -3.29883,6.01152 z"
   id="path7619" />
<path
   fill="#016300"
   opacity="1"
   stroke="none"
   d="m 365.91028,468.68072 c 2.75235,-0.48803 5.50989,-0.52856 8.72604,-0.5083 0.4346,5.33695 0.36542,10.61353 0.40402,15.88929 0.0221,3.02334 -1.54641,3.97519 -4.3399,3.99347 -2.89856,0.019 -4.7988,-0.69809 -4.74994,-4.0878 0.0713,-4.94516 -0.0156,-9.89264 -0.0402,-15.28666 z"
   id="path7621" />
<path
   fill="#331f07"
   opacity="1"
   stroke="none"
   d="m 254.1138,278.55423 c -3.64325,0.44284 -7.28186,0.46207 -10.92018,0.4382 -7.67825,-0.0504 -8.03085,-0.41284 -8.19075,-8.65045 3.64937,-0.4567 7.2991,-0.48612 10.9485,-0.46307 7.71968,0.0487 8.03314,0.37616 8.16243,8.67532 z"
   id="path7623" />
<path
   fill="#313a25"
   opacity="1"
   stroke="none"
   d="m 245.94199,239.46971 c 2.41362,-0.4671 4.80531,-0.46666 7.64553,-0.46687 0.45263,4.95863 0.46962,9.918 0.45536,14.87727 -0.007,2.52226 -1.06081,4.04219 -3.82227,4.11296 -2.93326,0.0751 -4.26642,-1.32501 -4.27199,-4.16878 -0.009,-4.62901 -0.019,-9.25801 -0.007,-14.35458 z"
   id="path7625" />
<path
   fill="#331f07"
   opacity="1"
   stroke="none"
   d="m 489.19894,190.17459 c 2.43412,-0.13664 4.19788,0.51297 4.53312,2.66438 0.69079,4.43293 0.8399,8.95694 -0.0482,13.34691 -0.60877,3.00925 -4.74921,3.72478 -6.7265,1.43566 -2.38508,-2.76128 -1.09354,-14.97007 2.24163,-17.44695 z"
   id="path7627" />
<path
   fill="#331f07"
   opacity="1"
   stroke="none"
   d="m 413.53265,99.892853 c 0.2909,7.689297 0.22867,7.751857 -8.18148,8.302567 -2.11036,-0.0341 -3.77845,-0.0716 -5.43747,-0.21405 -2.29892,-0.19742 -3.72498,-1.3619 -3.78885,-3.79645 -0.0702,-2.67557 1.40765,-4.06512 3.94586,-4.15002 4.32818,-0.144786 8.66244,-0.108524 13.46194,-0.142047 z"
   id="path7629" />
<path
   fill="#016300"
   opacity="1"
   stroke="none"
   d="m 414.80841,516.57123 c -2.17987,3.72906 -5.36468,2.47235 -8.06561,1.94916 -2.29438,-0.4444 -1.60178,-2.90058 -1.77768,-4.62677 -0.37033,-3.63413 1.29181,-4.97355 4.90692,-4.93961 3.40076,0.0319 5.49176,0.86221 5.10547,4.72092 -0.0821,0.81988 -0.0664,1.64959 -0.1691,2.8963 z"
   id="path7631" />
<path
   fill="#331f07"
   opacity="1"
   stroke="none"
   d="m 515.73236,280.8584 c 3.46539,-2.28879 6.76532,-3.19858 8.90943,0.8923 0.95605,1.82419 0.89788,4.31195 -0.79468,6.0076 -1.84589,1.84924 -4.27686,1.58182 -6.47773,0.81442 -2.2818,-0.79556 -2.33251,-2.94845 -2.26422,-4.96451 0.0274,-0.80819 0.26307,-1.60937 0.6272,-2.74981 z"
   id="path7633" />
<path
   fill="#016300"
   opacity="1"
   stroke="none"
   d="m 414.95807,493.12817 c -0.24146,2.42408 0.74509,5.1239 -2.37061,5.62494 -2.23669,0.35974 -4.93847,1.056 -6.64285,-0.7366 -1.82944,-1.92419 -1.30637,-4.7832 -0.60174,-7.10532 0.83895,-2.76467 3.53476,-1.77801 5.55712,-1.915 2.56806,-0.17405 4.15091,0.87829 4.05808,4.13198 z"
   id="path7635" />
<path
   fill="#0e0e06"
   opacity="1"
   stroke="none"
   d="m 324.51361,449.73938 c 0.37634,2.90216 0.41388,5.62219 0.47449,8.79562 0.023,0.4534 0.0111,0.46549 0.005,0.47123 -2.5614,2.90512 -5.37458,3.1531 -8.90747,0.4837 -2.29221,-9.4137 -0.38273,-11.55359 8.42779,-9.75055 z"
   id="path7637" />
<path
   fill="#0e0e06"
   opacity="1"
   stroke="none"
   d="m 395.79462,349.40888 c 8.98791,-0.3826 9.0921,-0.27894 9.23156,9.12872 -0.64947,0.44742 -1.3059,0.45819 -1.96219,0.45065 -7.73434,-0.0886 -8.78964,-1.40366 -7.26937,-9.57937 z"
   id="path7639" />
<path
   fill="#313a25"
   opacity="1"
   stroke="none"
   d="m 435.43182,309.03607 c -0.44345,-0.30893 -0.43515,-0.63647 -0.43084,-0.96408 0.11807,-8.99158 0.11804,-8.99158 9.46136,-9.04932 0.44687,0.16532 0.45703,0.33133 0.45984,0.4975 0.15875,9.35922 0.15872,9.35922 -9.49036,9.5159 z"
   id="path7641" />
<path
   fill="#313a25"
   opacity="1"
   stroke="none"
   d="m 225.07816,239.58543 c 2.98725,-0.47723 5.9589,-0.51675 9.37498,-0.55742 0.4651,1.31279 0.44632,2.6288 0.51416,3.94031 0.18268,3.53128 -0.44563,6.04059 -4.96317,6.04259 -4.5111,0.002 -5.16386,-2.49135 -4.97129,-6.03122 0.0535,-0.98314 0.0222,-1.97089 0.0453,-3.39426 z"
   id="path7643" />
<path
   fill="#313a25"
   opacity="1"
   stroke="none"
   d="m 384.96576,329.42966 c 0.30539,-0.44083 0.63281,-0.42908 0.96033,-0.42368 9.04321,0.14893 9.04321,0.1488 8.98391,9.48914 -0.17871,0.44458 -0.34372,0.44854 -0.50875,0.4494 -9.25605,0.047 -9.25605,0.0469 -9.43549,-9.51486 z"
   id="path7645" />
<path
   fill="#313a25"
   opacity="1"
   stroke="none"
   d="m 425.00024,309.44138 c 3.04148,-0.4459 6.08997,-0.44367 9.59644,-0.45041 0.41959,3.02142 0.3811,6.05182 0.32416,9.53473 -0.34488,0.4519 -0.67133,0.45211 -0.99778,0.45053 -8.8197,-0.0428 -8.8197,-0.0428 -8.92282,-9.53485 z"
   id="path7647" />
<path
   fill="#331f07"
   opacity="1"
   stroke="none"
   d="m 384.37189,499.82608 c 0.46676,2.80051 0.49786,5.60944 0.4823,8.8873 -1.70057,0.43146 -3.3545,0.39285 -5.00849,0.35666 -2.87793,-0.063 -4.75033,-1.18985 -4.82376,-4.38245 -0.0786,-3.41998 1.79621,-4.72845 4.94476,-4.76562 1.32334,-0.0156 2.64637,-0.0576 4.40519,-0.0959 z"
   id="path7649" />
<path
   fill="#331f07"
   opacity="1"
   stroke="none"
   d="m 315.67206,459.5907 c 2.76251,-0.50312 5.58072,-0.56397 8.85711,-0.60178 0.45231,0.67301 0.44977,1.32303 0.43995,1.97293 -0.11338,7.49829 -0.4339,7.81458 -8.57023,8.03461 -0.51946,-2.982 -0.59533,-5.97275 -0.72683,-9.40576 z"
   id="path7651" />
<path
   fill="#313a25"
   opacity="1"
   stroke="none"
   d="m 345.93896,179.44342 c 8.94523,-0.38582 8.94523,-0.38582 9.06202,8.15089 -0.32593,0.46025 -0.65265,0.48548 -0.97965,0.48922 -8.04748,0.0923 -8.12479,0.0137 -8.08237,-8.64011 z"
   id="path7653" />
<path
   fill="#331f07"
   opacity="1"
   stroke="none"
   d="m 314.55478,119.88617 c 0.3689,8.78943 0.22287,8.95148 -8.21329,9.11098 -0.42627,-8.82841 -0.28757,-8.9822 8.21329,-9.11098 z"
   id="path7655" />
<path
   fill="#331f07"
   opacity="1"
   stroke="none"
   d="m 385.55078,148.91248 c -0.47794,-2.71354 -0.5141,-5.40564 -0.55075,-8.55556 8.81366,-0.43965 8.9819,-0.28792 9.10556,8.20085 -2.70749,0.4205 -5.41025,0.39831 -8.55481,0.35471 z"
   id="path7657" />
<path
   fill="#331f07"
   opacity="1"
   stroke="none"
   d="m 354.11383,158.55478 c -8.78943,0.36888 -8.95151,0.22285 -9.11096,-8.21329 8.8284,-0.42627 8.98218,-0.28761 9.11096,8.21329 z"
   id="path7659" />
<path
   fill="#331f07"
   opacity="1"
   stroke="none"
   d="m 364.11383,168.55478 c -8.78943,0.36888 -8.95151,0.22285 -9.11096,-8.21329 8.8284,-0.42627 8.98215,-0.28761 9.11096,8.21329 z"
   id="path7661" />
<path
   fill="#313a25"
   opacity="1"
   stroke="none"
   d="m 335.93896,169.44342 c 8.94523,-0.38582 8.94523,-0.38582 9.06202,8.15088 -0.32593,0.46025 -0.65265,0.48547 -0.97965,0.48921 -8.04748,0.0923 -8.12479,0.0137 -8.08237,-8.64009 z"
   id="path7663" />
<path
   fill="#331f07"
   opacity="1"
   stroke="none"
   d="m 453.56757,119.89542 c 0.34698,8.6004 0.20825,8.7751 -7.22986,9.10192 -0.42145,-8.63169 -0.27094,-8.82119 7.22986,-9.10192 z"
   id="path7665" />
<path
   fill="#331f07"
   opacity="1"
   stroke="none"
   d="m 384.1062,128.558 c -2.43454,0.44215 -4.86371,0.44185 -7.75,0.442 -0.4393,-1.47614 -0.45523,-2.95407 -0.3963,-4.42902 0.10467,-2.62166 1.12067,-4.47329 4.0899,-4.44738 2.99152,0.0261 3.89399,1.96054 3.99973,4.54676 0.0469,1.14732 0.0429,2.29673 0.0567,3.88764 z"
   id="path7667" />
<path
   fill="#331f07"
   opacity="1"
   stroke="none"
   d="m 326.03473,99.45842 c 2.39548,-0.451653 4.78128,-0.454483 7.62073,-0.456513 0.45703,2.699353 0.46042,5.397903 0.45874,8.545923 -2.39783,0.44851 -4.79059,0.44755 -7.62659,0.44459 -0.44968,-2.6964 -0.45609,-5.39078 -0.45288,-8.534 z"
   id="path7669" />
<path
   fill="#0e0e06"
   opacity="1"
   stroke="none"
   d="m 436.84399,269.90463 c -0.0875,0.26279 -0.31265,0.50968 -0.73062,0.91715 -0.27966,-0.45456 -0.13263,-0.90174 0.73062,-0.91715 z"
   id="path7671" />
<path
   fill="#0e0e06"
   opacity="1"
   stroke="none"
   d="m 415.70819,129.15361 c -0.005,0.0851 -0.17899,0.28273 -0.53204,0.57977 0.019,-0.0748 0.20007,-0.26371 0.53204,-0.57977 z"
   id="path7673" />
<path
   fill="#0e0e06"
   opacity="1"
   stroke="none"
   d="m 335.73611,449.16571 c -0.007,0.0869 -0.18579,0.28931 -0.54733,0.59592 0.0182,-0.0781 0.2038,-0.27295 0.54733,-0.59592 z"
   id="path7675" />
<path
   fill="#0e0e06"
   opacity="1"
   stroke="none"
   d="m 365.15649,198.34524 c 0.11466,-0.0438 0.30756,0.0985 0.54364,0.45704 -0.0904,0.003 -0.25994,-0.1592 -0.54364,-0.45704 z"
   id="path7677" />
<path
   fill="#0e0e06"
   opacity="1"
   stroke="none"
   d="m 336.05987,439.1756 c 0.0579,-0.0987 -0.065,0.33078 -0.13131,0.54297 -0.0689,-0.0174 -0.0223,-0.23621 0.13131,-0.54297 z"
   id="path7679" />
<path
   fill="#0e0e06"
   opacity="1"
   stroke="none"
   d="m 324.34369,168.84442 c -0.0441,-0.11539 0.0989,-0.30926 0.45923,-0.54651 0.003,0.0911 -0.15976,0.26152 -0.45923,0.54651 z"
   id="path7681" />
</svg>
