<?xml version="1.0" encoding="UTF-8" standalone="no"?>
<svg
   version="1.1"
   id="Layer_1"
   x="0px"
   y="0px"
   width="160000"
   viewBox="0 0 160000 160000"
   enable-background="new 0 0 400 400"
   xml:space="preserve"
   sodipodi:docname="dropwater-1.png_adobe_express.svg"
   height="160000"
   xmlns:inkscape="http://www.inkscape.org/namespaces/inkscape"
   xmlns:sodipodi="http://sodipodi.sourceforge.net/DTD/sodipodi-0.dtd"
   xmlns="http://www.w3.org/2000/svg"
   xmlns:svg="http://www.w3.org/2000/svg"><defs
   id="defs1633" /><sodipodi:namedview
   id="namedview1631"
   pagecolor="#ffffff"
   bordercolor="#000000"
   borderopacity="0.25"
   inkscape:showpageshadow="2"
   inkscape:pageopacity="0.0"
   inkscape:pagecheckerboard="0"
   inkscape:deskcolor="#d1d1d1"
   showgrid="false" />
<path
   id="path1618"
   d="m 451.19336,430.79492 c -1.39007,0.0767 -2.77953,0.15895 -4.16992,0.23047 -0.9496,1.06379 -0.45806,0.95441 4.16992,-0.23047 z" />
<path
   fill="#3d5c79"
   opacity="1"
   stroke="none"
   d="m 57.166431,248.99841 c 0,-10.44453 0,-20.88907 0,-31.62115 2.596756,-0.23963 4.851502,-0.4477 7.656971,-0.70659 0,-5.00777 0,-9.92008 0,-15.20453 2.763672,-0.28439 5.011254,-0.51567 8.000344,-0.82326 0,-4.94363 0,-9.98311 0,-15.24177 2.963379,-0.27222 5.218269,-0.47937 8.021736,-0.73689 0,-5.02723 0,-9.94086 0,-15.22416 2.768829,-0.27191 5.019661,-0.49295 8.005478,-0.78618 0,-4.97685 0,-10.01747 0,-15.26265 2.960274,-0.27162 5.215149,-0.47851 8.016586,-0.73555 0,-5.04415 0,-9.95852 0,-15.23475 2.773995,-0.26302 5.027944,-0.47672 8.010634,-0.75951 0,-4.99914 0,-10.04262 0,-15.28061 2.95718,-0.27054 5.21205,-0.47683 8.01145,-0.73295 0,-5.06002 0,-9.97602 0,-15.23837 2.77635,-0.25924 5.03076,-0.46974 8.00366,-0.74733 0,-5.028737 0,-10.074971 0,-15.66332 2.83608,0 4.95456,0 7.56093,0.464424 0.50783,6.463471 0.66094,12.466186 0.49573,18.460126 -0.0929,3.3721 0.50209,5.59329 4.56039,5.11045 2.57711,-0.30661 3.57409,1.04559 3.49729,3.55833 -0.0916,2.99635 -0.24756,6.03069 0.13541,8.98228 0.15757,1.21456 1.75494,3.28946 2.51423,3.21055 5.32222,-0.55313 5.65235,2.54131 5.3716,6.47335 -0.15386,2.15466 -0.33238,4.4012 0.12144,6.47003 0.26645,1.21478 1.83437,3.13959 2.67577,3.06875 4.90195,-0.41267 5.52992,2.27105 5.20349,6.12697 -0.16804,1.98529 0.094,4.00548 -0.049,5.99475 -0.21469,2.98656 0.97968,4.416 4.02289,4.07708 3.56674,-0.39725 4.09804,1.66752 4.02832,4.59231 -0.12306,5.16303 -0.20474,10.34184 0.0995,15.4902 0.0789,1.33614 1.76469,3.7566 2.5209,3.68401 5.31726,-0.51039 5.68721,2.55562 5.3699,6.49133 -0.13349,1.65564 0.0965,3.34111 -0.0442,4.99553 -0.27523,3.23528 0.64055,5.19759 4.35791,4.77153 2.89003,-0.33122 3.70543,1.23658 3.68615,3.89734 -0.0785,10.83153 0.0564,21.66588 -0.17025,32.49327 -0.0252,1.20391 -1.91104,3.42304 -2.84106,3.37491 -4.49616,-0.2327 -5.42401,1.98511 -5.04482,5.79787 0.1969,1.97999 -0.0941,4.00561 0.0577,5.99365 0.23749,3.1105 -0.80676,4.81439 -4.18639,4.42822 -3.22145,-0.3681 -4.09593,1.42765 -3.84057,4.22522 0.25521,2.79618 -1.03449,4.05683 -3.79581,3.75547 -3.33852,-0.36438 -4.54079,1.23565 -4.21433,4.38229 0.30368,2.92679 -1.29096,3.87637 -3.92311,3.6235 -2.98217,-0.28643 -4.39441,0.96964 -4.06323,4.01316 0.33261,3.05685 -1.10574,4.28628 -4.0749,4.00131 -2.64394,-0.25379 -4.23848,0.72424 -3.9063,3.6351 0.41978,3.67853 -1.4832,4.45139 -4.74579,4.4068 -10.33027,-0.14114 -20.66405,-0.10413 -30.99558,-0.0224 -2.766549,0.0219 -4.637643,-0.5758 -4.267823,-3.83188 0.379715,-3.34317 -1.244774,-4.53302 -4.384819,-4.20825 -2.932846,0.30335 -3.869751,-1.30286 -3.617355,-3.92914 0.287246,-2.98901 -0.982331,-4.38586 -4.019257,-4.05765 -3.059456,0.33066 -4.262169,-1.10525 -4.000084,-4.08169 0.116486,-1.32297 0.021,-2.66464 0.487534,-3.96362 5.392425,0.0341 10.31903,0.0341 15.344368,0.0341 0.152534,-2.97366 0.275886,-5.37844 0.400306,-7.80398 2.82713,-0.15607 5.22231,-0.2883 7.38433,-0.40766 0,-5.57249 0,-10.62359 0,-15.53433 -5.33422,0 -10.27027,0 -15.421531,0 -0.133705,2.62909 -0.25592,5.03237 -0.383911,7.54909 -2.730011,0.16751 -5.128776,0.3147 -7.71949,0.47365 0,5.47464 0,10.59973 -0.448929,15.72778 -4.488838,0.198 -8.686714,0.71186 -7.840515,-5.66714 0.08479,-0.63919 -1.488197,-1.96137 -2.465561,-2.17624 -1.720314,-0.37818 -3.574829,-0.14588 -5.373153,-0.16919 0,0 0.06887,-8.9e-4 0.06238,-0.41312 -0.04936,-7.55076 -0.04936,-7.55079 -7.350121,-7.56871 -0.165817,-4e-4 -0.331638,-1.7e-4 -0.497456,-2.3e-4 M 121,158.60158 c 0,-1.77413 0,-3.54825 0,-5.41184 2.98676,-0.16076 5.39498,-0.29039 7.61078,-0.40965 0,-5.53859 0,-10.60091 0,-15.52853 -5.33941,0 -10.28642,0 -15.38809,0 -0.16677,2.64596 -0.31861,5.05508 -0.47693,7.56691 -2.71806,0.15141 -5.1205,0.28523 -7.98689,0.44491 0,8.14246 0,15.88272 0,23.90193 -2.78311,0 -5.066335,0 -7.563924,0 -0.142883,2.69486 -0.27108,5.1128 -0.404876,7.63637 -2.733735,0.16277 -5.137474,0.30589 -8.003525,0.47655 0,5.43663 0,10.51533 0,15.8678 -2.777802,0 -5.059494,0 -7.827408,0 0,5.36204 0,10.44453 0,15.63276 -2.885384,0.17914 -5.288368,0.32833 -7.616135,0.47284 0,10.77869 0,21.1803 0,31.35613 2.750115,0 5.148316,0 7.844483,0 0,-2.67337 0,-4.95261 0,-7.38307 2.70861,-0.17034 5.121803,-0.32209 7.644706,-0.48073 0.140183,-2.72803 0.264023,-5.138 0.402016,-7.8234 2.708771,0 4.988304,0 7.755844,0 0,-5.36624 0,-10.44891 0,-15.9982 2.882584,0 5.278579,0 8.153969,0 0,-8.22166 0,-15.96702 0,-23.7295 2.89417,-0.16341 5.29662,-0.29905 7.99138,-0.45118 0,-5.42772 0,-10.37536 0,-15.79811 2.71825,0 5.11481,0 7.8646,0 0,-3.45118 0,-6.41873 0,-10.34199 z"
   id="path1620" />
<path
   fill="#873529"
   opacity="1"
   stroke="none"
   d="m 64.96817,257.44891 c 1.781784,-0.44513 3.636299,-0.67743 5.356613,-0.29925 0.977364,0.21487 2.550354,1.53705 2.465561,2.17624 -0.846199,6.379 3.351677,5.86514 7.805008,5.66769 0.413422,-0.002 0.414551,-0.0734 0.414551,-0.0734 -7.25e-4,1.33316 0.09477,2.67483 -0.02172,3.9978 -0.262085,2.97644 0.940628,4.41235 4.000084,4.08169 3.036926,-0.32821 4.306503,1.06864 4.019257,4.05765 -0.252396,2.62628 0.684509,4.23249 3.617355,3.92914 3.140045,-0.32477 4.764534,0.86508 4.384819,4.20825 -0.36982,3.25608 1.501274,3.85379 4.267822,3.83188 10.33153,-0.0818 20.66531,-0.11877 30.99558,0.0224 3.26259,0.0446 5.16557,-0.72827 4.74579,-4.4068 -0.33218,-2.91086 1.26236,-3.88889 3.9063,-3.6351 2.96916,0.28497 4.40751,-0.94446 4.0749,-4.00131 -0.33118,-3.04352 1.08106,-4.29959 4.06323,-4.01316 2.63215,0.25287 4.22679,-0.69671 3.92311,-3.6235 -0.32646,-3.14664 0.87581,-4.74667 4.21433,-4.38229 2.76132,0.30136 4.05102,-0.95929 3.79581,-3.75547 -0.25536,-2.79757 0.61912,-4.59332 3.84057,-4.22522 3.37963,0.38617 4.42388,-1.31772 4.18639,-4.42822 -0.15178,-1.98804 0.13917,-4.01366 -0.0577,-5.99365 -0.37919,-3.81276 0.54866,-6.03057 5.04482,-5.79787 0.93002,0.0481 2.81587,-2.171 2.84106,-3.37491 0.2266,-10.82739 0.0917,-21.66174 0.17025,-32.49327 0.0193,-2.66076 -0.79612,-4.22856 -3.68615,-3.89734 -3.71736,0.42606 -4.63314,-1.53625 -4.35791,-4.77153 0.14074,-1.65442 -0.0893,-3.33989 0.0442,-4.99553 0.31731,-3.93571 -0.0526,-7.00172 -5.3699,-6.49133 -0.75621,0.0726 -2.44195,-2.34787 -2.5209,-3.68401 -0.30423,-5.14836 -0.22255,-10.32717 -0.0995,-15.4902 0.0697,-2.92479 -0.46158,-4.98956 -4.02832,-4.59231 -3.04321,0.33892 -4.23758,-1.09052 -4.02289,-4.07708 0.14301,-1.98927 -0.11906,-4.00946 0.049,-5.99475 0.32643,-3.85592 -0.30154,-6.53964 -5.20349,-6.12697 -0.8414,0.0708 -2.40932,-1.85397 -2.67577,-3.06875 -0.45382,-2.06883 -0.2753,-4.31537 -0.12144,-6.47003 0.28075,-3.93204 -0.0494,-7.02648 -5.3716,-6.47335 -0.75929,0.0789 -2.35666,-1.99599 -2.51423,-3.21055 -0.38297,-2.95159 -0.22698,-5.98593 -0.13541,-8.98228 0.0768,-2.51274 -0.92018,-3.86494 -3.49729,-3.55833 -4.0583,0.48284 -4.65333,-1.73835 -4.56039,-5.11045 0.16521,-5.99394 0.0121,-11.996655 -0.0578,-18.461545 0.0899,-2.921081 0.22974,-5.376319 0.3869,-8.135376 5.21427,0 10.11431,0 15.63967,0 0,5.138428 0,10.052445 0,15.219574 2.83438,0.296288 5.08584,0.531639 7.93385,0.829354 0,4.997113 0,9.908693 0,15.177243 2.81608,0.28736 5.06724,0.51708 7.92441,0.80863 0,4.92289 0,9.83276 0,15.12245 2.80325,0.31799 5.0484,0.57268 8.08119,0.9167 0,7.60159 0,15.30754 0,23.17394 3.00964,0.30963 5.26111,0.54127 8.09828,0.83316 0,5.0811 0,9.99948 0,15.153 2.82781,0.29356 5.07932,0.52731 7.92439,0.82266 0,5.02125 0,9.93448 0,15.16246 2.81917,0.29445 5.07032,0.52957 7.9244,0.82768 0,4.94441 0,9.85426 0,15.14563 2.80992,0.30106 5.05923,0.54204 7.92227,0.84879 0,4.86444 0,9.77246 0,15.14422 2.92631,0.32112 5.30128,0.58174 7.9574,0.8732 0,13.14603 0,26.04688 0,39.22061 -2.4995,0.25968 -4.75086,0.49356 -7.59311,0.78888 0,5.04035 0,9.95514 0,15.13977 -2.82289,0.30054 -5.07402,0.54023 -7.92426,0.84369 0,4.97159 0,9.8822 0,15.1724 -2.81154,0.28445 -5.06001,0.51193 -7.73364,0.78241 -0.24426,2.24701 -0.4892,4.50015 -0.79289,7.29397 -2.29557,0.23349 -4.68335,0.47635 -7.27816,0.7403 -0.25006,2.48858 -0.47653,4.74237 -0.76194,7.5827 -7.75209,0 -15.33023,0 -23.15773,0 -0.29404,2.82687 -0.52822,5.07825 -0.79882,7.67975 -15.71304,0 -31.28083,0 -47.24462,0 -0.24001,-2.31552 -0.47374,-4.57038 -0.76979,-7.42645 -4.937826,0 -9.847608,0 -15.140249,0 -0.303245,-2.80692 -0.545982,-5.05384 -0.835533,-7.73404 -2.188545,-0.25418 -4.436256,-0.51526 -7.274879,-0.84494 -0.226807,-2.24781 -0.466805,-4.62638 -0.732643,-7.26096 -2.460976,-0.24435 -4.715661,-0.4682 -7.646668,-0.75922 0,-2.75259 0.0016,-5.36258 -3.13e-4,-7.97256 -0.0054,-7.16257 -0.006,-7.16257 -8.014961,-8.07956 0,-4.78461 0,-9.70959 -0.01653,-15.103 z"
   id="path1622" />
<path
   fill="#873529"
   opacity="1"
   stroke="none"
   d="m 57.109978,249.42155 c 0.222271,-0.42308 0.388092,-0.42331 0.553909,-0.42291 7.300766,0.0179 7.300766,0.018 7.349648,7.60314 -7.972664,0.31079 -7.972664,0.31079 -7.903557,-7.18023 z"
   id="path1624" />
<path
   fill="#ffffff"
   opacity="1"
   stroke="none"
   d="m 121,159.07944 c 0,3.4454 0,6.41295 0,9.86413 -2.74979,0 -5.14635,0 -7.8646,0 0,5.42275 0,10.37039 0,15.79811 -2.69476,0.15213 -5.09721,0.28777 -7.99138,0.45118 0,7.76248 0,15.50784 0,23.7295 -2.87539,0 -5.271385,0 -8.153969,0 0,5.54929 0,10.63196 0,15.9982 -2.76754,0 -5.047073,0 -7.755844,0 -0.137993,2.6854 -0.261833,5.09537 -0.402016,7.8234 -2.522903,0.15864 -4.936096,0.31039 -7.644706,0.48073 0,2.43046 0,4.7097 0,7.38307 -2.696167,0 -5.094368,0 -7.844483,0 0,-10.17583 0,-20.57744 0,-31.35613 2.327767,-0.14451 4.730751,-0.2937 7.616135,-0.47284 0,-5.18823 0,-10.27072 0,-15.63276 2.767914,0 5.049606,0 7.827408,0 0,-5.35247 0,-10.43117 0,-15.8678 2.866051,-0.17066 5.26979,-0.31378 8.003525,-0.47655 0.133796,-2.52357 0.261993,-4.94151 0.404876,-7.63637 2.497589,0 4.780814,0 7.563924,0 0,-8.01921 0,-15.75947 0,-23.90193 2.86639,-0.15968 5.26883,-0.2935 7.98689,-0.44491 0.15832,-2.51183 0.31016,-4.92095 0.47693,-7.56691 5.10167,0 10.04868,0 15.38809,0 0,4.92762 0,9.98994 0,15.52853 -2.2158,0.11926 -4.62402,0.24889 -7.61078,0.40965 0,1.86359 0,3.63771 0,5.8897 z"
   id="path1626" />
<path
   fill="#ffffff"
   opacity="1"
   stroke="none"
   d="m 81.044281,264.9906 c 0.03551,-5.12561 0.03551,-10.2507 0.03551,-15.72534 2.590714,-0.15895 4.989479,-0.30614 7.71949,-0.47365 0.127991,-2.51672 0.250206,-4.92 0.383911,-7.54909 5.151261,0 10.087311,0 15.421528,0 0,4.91074 0,9.96184 0,15.53433 -2.16202,0.11936 -4.5572,0.25159 -7.384327,0.40766 -0.12442,2.42554 -0.247772,4.83032 -0.400306,7.80398 -5.025338,0 -9.951943,0 -15.344368,-0.0341 -0.465813,-0.0342 -0.466942,0.0368 -0.431435,0.0362 z"
   id="path1628" />
</svg>
