<?xml version="1.0" encoding="UTF-8" standalone="no"?>
<svg
   version="1.1"
   id="Layer_1"
   x="0px"
   y="0px"
   width="160000"
   viewBox="0 0 160000 160000"
   enable-background="new 0 0 400 400"
   xml:space="preserve"
   sodipodi:docname="eyemonster_adobe_express.svg"
   height="160000"
   xmlns:inkscape="http://www.inkscape.org/namespaces/inkscape"
   xmlns:sodipodi="http://sodipodi.sourceforge.net/DTD/sodipodi-0.dtd"
   xmlns="http://www.w3.org/2000/svg"
   xmlns:svg="http://www.w3.org/2000/svg"><defs
   id="defs1795" /><sodipodi:namedview
   id="namedview1793"
   pagecolor="#ffffff"
   bordercolor="#000000"
   borderopacity="0.25"
   inkscape:showpageshadow="2"
   inkscape:pageopacity="0.0"
   inkscape:pagecheckerboard="0"
   inkscape:deskcolor="#d1d1d1"
   showgrid="false" />

<path
   fill="#dad3c9"
   opacity="1"
   stroke="none"
   d="m 37.189865,215.16652 c -0.320755,-0.57121 -0.641506,-1.14241 -1.720898,-3.06464 -2.810585,5.45824 -5.214426,10.12656 -8.358623,16.23268 -0.131638,-4.15635 -0.539402,-7.34535 -0.209585,-10.45614 0.181387,-1.71083 1.188505,-3.94391 2.545004,-4.80606 4.080497,-2.59346 2.642692,-5.3844 1.205883,-8.6137 -4.131192,-9.28497 -2.20673,-19.37083 5.643966,-25.86627 7.635582,-6.31747 16.978543,-8.39989 27.107266,-3.01079 5.808807,3.09066 8.663833,7.59417 11.248489,13.71497 0.271568,2.20154 0.200989,3.80594 0.133492,5.34022 -2.081482,0.36942 -3.833168,0.68032 -5.584854,0.9912 0.03043,0.2993 0.06087,0.59862 0.09131,0.89792 1.823258,0.27292 3.646523,0.54584 5.66082,0.84735 0,2.0329 0,3.8317 0,5.63049 0,0 0.05629,0.006 -0.364517,-0.005 -5.522766,-1.14223 -7.398132,3.40164 -10.577683,5.80931 -1.430049,-1.2498 -2.877517,-2.51481 -4.76585,-4.16514 -0.195644,2.49127 -0.332695,4.23646 -0.464695,5.91731 -8.944652,1.07045 -8.944652,1.07045 -10.454269,8.5901 -3.739819,-1.33783 -7.437534,-2.66061 -11.135254,-3.98338 m 17.115559,-24.80931 c -2.743809,-2.86824 -5.675804,-5.02931 -10.078255,-4.22284 -3.538391,0.64816 -7.906818,4.88875 -8.047092,8.35422 -0.224408,5.54399 2.611316,10.7405 6.471672,11.25215 4.514431,0.59833 9.606811,0.79414 11.641197,-4.07248 1.288738,-3.0829 0.386471,-7.0817 0.01248,-11.31105 z"
   id="path1782" />
<path
   fill="#812a38"
   opacity="1"
   stroke="none"
   d="m 37.129452,215.61157 c 3.758133,0.87772 7.455848,2.2005 11.195667,3.53833 1.509617,-7.51965 1.509617,-7.51965 10.454269,-8.5901 0.132,-1.68085 0.269051,-3.42604 0.464695,-5.91731 1.888333,1.65033 3.335801,2.91534 4.76585,4.16514 3.179551,-2.40767 5.054917,-6.95154 10.574067,-5.83742 -3.291474,6.45379 2.206718,11.53092 2.973632,17.31832 0.326523,2.46411 -0.118362,5.03041 -0.212677,7.55028 -0.50444,0.0221 -1.00888,0.0442 -1.51332,0.0663 -2.668282,-4.07113 -5.336564,-8.14226 -8.004845,-12.21338 -0.605026,0.14329 -1.210053,0.2866 -1.815079,0.4299 -0.22216,3.89532 -0.444321,7.79065 -0.666481,11.68597 -0.513931,0.38552 -1.027855,0.77103 -1.541786,1.15656 -3.734268,-12.00081 -12.728066,-7.03919 -20.252655,-8.02046 -0.907448,3.61941 -0.324341,8.32849 -6.481751,7.61247 0,-4.25424 0,-8.37691 0.06041,-12.94463 z"
   id="path1784" />
<path
   fill="#812a38"
   opacity="1"
   stroke="none"
   d="m 75.367645,202.93961 c -0.415512,-1.73465 -0.415512,-3.53345 -0.415512,-5.56635 -2.014297,-0.30151 -3.837562,-0.57443 -5.66082,-0.84735 -0.03043,-0.2993 -0.06087,-0.59862 -0.09131,-0.89792 1.751686,-0.31088 3.503372,-0.62178 5.584854,-0.9912 0.0675,-1.53428 0.138076,-3.13868 0.208442,-5.1771 0.467919,-0.30712 1.348198,-0.16782 1.344811,-0.0551 -0.13504,4.49179 -0.350166,8.98118 -0.970467,13.53502 z"
   id="path1786" />
<path
   fill="#812a38"
   opacity="1"
   stroke="none"
   d="m 54.532608,190.67787 c 0.146809,3.90869 1.049076,7.90749 -0.239662,10.99039 -2.034386,4.86662 -7.126766,4.67081 -11.641197,4.07248 -3.860356,-0.51165 -6.69608,-5.70816 -6.471672,-11.25215 0.140274,-3.46547 4.508701,-7.70606 8.047092,-8.35422 4.402451,-0.80647 7.334446,1.3546 10.305439,4.5435 m -15.255981,4.40727 c -1.191159,3.59133 0.917995,5.69243 3.860694,5.80809 1.905491,0.0749 5.014138,-1.65973 5.542954,-3.2585 0.556713,-1.68313 -1.316006,-4.16984 -2.127228,-6.30543 -2.291363,1.01752 -4.582725,2.03505 -7.27642,3.75584 z"
   id="path1788" />
<path
   fill="#000000"
   opacity="1"
   stroke="none"
   d="m 39.477791,194.73352 c 2.492531,-1.36917 4.783893,-2.3867 7.075256,-3.40422 0.811222,2.13559 2.683941,4.6223 2.127228,6.30543 -0.528816,1.59877 -3.637463,3.33341 -5.542954,3.2585 -2.942699,-0.11566 -5.051853,-2.21676 -3.65953,-6.15971 z"
   id="path1790" />
</svg>
