<?xml version="1.0" encoding="UTF-8" standalone="no"?>
<svg
   version="1.1"
   id="Layer_1"
   x="0px"
   y="0px"
   width="129600"
   viewBox="0 0 129600 45369"
   enable-background="new 0 0 360 213"
   xml:space="preserve"
   sodipodi:docname="cloud-1.svg"
   height="45369"
   xmlns:inkscape="http://www.inkscape.org/namespaces/inkscape"
   xmlns:sodipodi="http://sodipodi.sourceforge.net/DTD/sodipodi-0.dtd"
   xmlns="http://www.w3.org/2000/svg"
   xmlns:svg="http://www.w3.org/2000/svg"><defs
   id="defs1463" /><sodipodi:namedview
   id="namedview1461"
   pagecolor="#ffffff"
   bordercolor="#000000"
   borderopacity="0.25"
   inkscape:showpageshadow="2"
   inkscape:pageopacity="0.0"
   inkscape:pagecheckerboard="0"
   inkscape:deskcolor="#d1d1d1"
   showgrid="false" />
<path
   id="path1426"
   style="stroke-width:0.91883"
   d="m 143.77148,82.339844 c -11.01294,5.274403 -23.47189,10.971111 -34.08789,15.841797 -11.940375,5.478299 -20.853984,2.683409 -24.292965,-3.015625 -6.437243,3.171159 -11.488046,5.625364 -18.558594,9.095704 -0.167986,2.01408 -0.547964,4.17694 -1.205078,6.5 -1.882859,6.65635 -2.936914,13.50781 -4.080078,20.31836 -0.03605,0.21479 -0.0714,0.42973 -0.107422,0.64453 1.859557,0.61705 3.503304,2.20318 5.185547,3.61133 0.09452,-0.0554 0.174334,-0.0963 0.269531,-0.15235 0.14901,-0.0877 0.89686,0.82912 1.298828,1.33399 0.158072,0.10529 0.312164,0.22582 0.472657,0.32031 0.335024,0.65957 0.549411,1.06857 0.841796,1.63086 0.638463,1.03162 1.075817,1.90104 1.41211,2.68945 14.425824,-2.45939 28.853061,-4.91112 43.275388,-7.39062 1.71633,-0.29507 3.34415,-0.46257 4.88086,-0.51758 14.11816,-0.50542 20.50528,8.54233 17.46094,16.65234 20.77829,-1.67919 41.55849,-3.33324 62.33398,-5.04687 9.86803,-0.80911 19.73404,-1.63665 29.60352,-2.42774 4.98578,-0.39963 11.81087,-4.73789 15.5,-2.3125 0.49624,0.19218 0.92379,0.49835 1.16992,1.10547 0.0112,0.0277 0.0181,0.0582 0.0293,0.0859 0.7369,1.03591 1.35837,2.14635 1.89844,3.30469 11.12393,-0.50375 22.23802,-1.00705 33.56445,-1.41602 -0.001,-0.84184 -0.0279,-1.68355 -0.0254,-2.52539 6.2e-4,-0.2103 0.005,-0.42055 0.006,-0.63086 -3.02448,-1.82402 -5.92358,-3.78694 -8.1836,-6.44922 -2.57905,-3.0381 -4.2513,-19.6628 -4.5957,-23.14648 -0.25742,-2.60382 -0.50874,-6.27168 -0.73633,-9.91992 -0.94892,-0.0518 -1.89682,-0.11941 -2.8457,-0.17188 -4.29232,1.80801 -9.07505,3.92903 -12.52148,1.46289 -1.13895,-0.81497 -2.11827,-1.61151 -3.0254,-2.400388 -1.03996,-0.07037 -2.08134,-0.11276 -3.12109,-0.1875 -4.98268,-0.358163 -9.96963,-0.702392 -14.94141,-1.189453 -4.36903,-0.428013 -8.71694,-1.037974 -13.07617,-1.55664 -3.45002,-0.886275 -7.31221,-0.800579 -10.35156,-2.658203 -4.59468,-2.80824 -7.71713,-5.455275 -9.5,-8.22461 -5.18355,1.929106 -10.37961,3.823697 -15.62891,5.564453 -5.16692,1.713453 -10.33355,3.489584 -15.64062,4.701172 -3.62063,0.82657 -8.02286,3.540125 -11.05274,1.392578 -5.15571,-3.654333 -8.23727,-9.44272 -11.625,-14.916015 z M 69.507812,138.46875 c -0.232399,-0.37551 -0.437291,-0.72834 -0.71289,-1.13867 -0.09082,-0.13522 -0.173547,-0.27611 -0.271484,-0.40625 -0.01336,-0.0178 -0.219856,-0.26781 -0.330079,-0.40625 -0.531953,-0.35434 -1.053569,-0.75073 -1.568359,-1.18164 -2.344394,1.37314 -4.436277,2.50757 -6.378906,3.51367 -0.02669,0.1595 -0.05338,0.31904 -0.08008,0.47851 -0.171167,0.99839 -0.347947,1.99583 -0.519532,2.99415 0.404786,0.18769 0.81112,0.37166 1.21875,0.55273 3.336162,-0.56832 6.671723,-1.14023 10.007813,-1.70898 -0.392272,-0.79815 -0.827722,-1.66358 -1.365235,-2.69727 z M 0.90429688,93.671875 c 1.9017e-4,0.386718 -2.28e-4,0.773444 0,1.160156 C 0.97411948,94.76108 1.0492442,94.695874 1.1191406,94.625 1.0462115,94.307589 0.97755282,93.989211 0.90429688,93.671875 Z" />
<path
   fill="#d9e7f5"
   opacity="1"
   stroke="none"
   d="m 234.02295,165 c -2.4914,-3e-5 -4.49194,-0.05 -6.48889,0.0136 -2.11968,0.0675 -3.92726,0.18762 -3.60378,-2.99013 0.33734,-3.31379 -2.45338,-1.83442 -3.91131,-1.96396 -3.05016,-0.27098 -6.90252,1.15265 -6.13713,-4.55705 0.32768,-2.44441 -2.14089,-1.25381 -3.38347,-1.4664 -1.41455,-0.24203 -2.73317,-0.0374 -2.49475,1.96796 0.31308,2.63339 0.002,4.67474 -3.5118,4.03325 -0.98244,-0.17935 -1.6373,0.49989 -1.45273,1.46357 0.81336,4.24662 -2.11992,3.50837 -4.53845,3.50104 -2.66527,-0.008 -5.33058,-0.008 -7.99585,-1e-5 -2.42116,0.007 -4.82544,0.75 -4.70644,-3.50539 0.0848,-3.03127 -3.1535,-1.19122 -4.81356,-1.403 -3.04363,-0.38831 -7.02581,1.073 -6.0517,-4.60974 0.31041,-1.81082 -1.36375,-1.46021 -2.44414,-1.4661 -1.09047,-0.006 -2.74086,-0.31587 -2.42384,1.48781 0.89168,5.07346 -2.36212,4.59607 -5.58467,4.52498 -2.75234,-0.0607 -6.21945,-1.10733 -5.64871,4.00273 0.16549,1.48171 -1.83136,0.92395 -2.85967,0.93646 -5.32977,0.0648 -10.66121,0.0662 -15.99092,-0.002 -1.0179,-0.0129 -2.98413,0.58501 -2.82835,-0.98422 0.56744,-5.71638 -3.5149,-3.82497 -6.18259,-3.92966 -2.84366,-0.11158 -5.89897,0.52898 -5.00097,-4.09268 0.38877,-2.00084 -1.08888,-1.962 -2.50425,-1.9826 -1.48243,-0.0216 -2.71171,0.0895 -2.46073,2.05629 0.3416,2.67692 -0.0647,4.6508 -3.53423,4.00546 -0.63311,-0.11777 -1.46147,0.10263 -1.40259,0.96355 0.3436,5.02462 -3.28413,3.94746 -6.11328,3.98083 -4.6636,0.055 -9.32897,0.056 -13.992045,-0.0178 -1.014275,-0.0161 -2.969917,0.5997 -2.814629,-1.00238 0.554558,-5.72125 -3.557167,-3.87145 -6.19487,-3.88335 -2.703026,-0.0122 -4.666824,-0.18742 -3.963295,-3.64044 0.06487,-0.31837 0.01036,-0.95473 -0.01268,-0.95586 -4.419388,-0.21708 -5.483757,-5.14885 -9.066063,-6.42837 -1.034164,-0.36936 -2.312591,-0.0305 -3.477806,-0.062 -2.969017,-0.0804 -6.622131,0.83205 -8.711132,-0.57228 -2.042412,-1.37302 -0.933372,-5.31155 -0.611092,-7.99631 0.558747,-4.65457 -5.214824,-0.49899 -5.093711,-4.0177 0.08808,-2.55886 0.439079,-5.25883 -3.618187,-4.42581 -0.47493,0.0975 -1.429905,-0.003 -1.432,-0.0468 -0.189262,-3.95308 -3.365337,-5.39729 -5.644428,-7.83616 -1.237503,-1.32427 -1.262111,-3.51879 -3.927276,-3.10194 -2.099366,0.32836 -2.531197,-0.80742 -2.416661,-2.61161 0.105332,-1.6591 0.202893,-3.35452 -0.0173,-4.99071 -0.407673,-3.02928 1.023243,-3.47037 3.671921,-3.45952 7.264431,0.0298 7.318824,-0.0918 7.336444,-7.08757 0.0058,-2.29499 0.421067,-3.065998 2.995137,-4.249103 2.669552,-1.22699 4.267116,-4.957726 7.913124,-6.037224 0.601578,-0.178116 0.252987,-4.061913 0.0848,-6.212921 -0.193405,-2.473542 0.429916,-3.670403 3.222473,-3.403214 2.641098,0.252693 5.330566,-0.05047 7.989288,0.08157 3.058251,0.15187 5.831795,0.239021 4.85891,-4.217949 -0.173615,-0.795357 4.12e-4,-1.818756 1.161346,-1.746323 3.080437,0.192223 5.789101,0.101463 4.913155,-4.26561 -0.03527,-0.175888 0.674721,-0.614402 1.094215,-0.738006 0.462471,-0.136277 0.991867,-0.07938 1.489769,-0.05627 4.945496,0.229591 0.170532,-5.594627 3.520111,-5.860176 3.03949,-0.240959 5.780793,0.03955 4.818802,-4.360668 C 93.821922,60.828625 94,59.790215 94,58.790733 c 2.3e-5,-8.266559 3.74e-4,-8.261131 8.22923,-8.797031 1.20764,-0.07864 2.99004,0.50452 2.73672,-1.716656 -0.29416,-2.57933 0.59837,-3.708393 3.26257,-3.298019 1.22511,0.188701 1.99973,-0.453804 1.74341,-1.70295 -1.00042,-4.875515 2.18016,-4.38713 5.26305,-4.301548 3.8284,0.106278 7.66319,0.08466 11.49295,0.0066 3.01978,-0.06156 6.29638,-0.693992 5.30655,4.261929 -0.33946,1.699661 0.97945,1.959896 2.21154,1.729183 3.75909,-0.703922 3.81564,1.482033 3.83366,4.288139 0.0159,2.483227 -1.80519,6.395634 3.68703,5.871624 2.029,-0.193588 1.14529,2.002335 1.1828,3.131192 0.0547,1.646438 0.0356,2.807895 2.31198,2.812694 2.20872,0.0047 3.0434,-0.668346 2.74905,-2.839878 -0.27897,-2.058296 -1.6e-4,-3.362175 2.76014,-3.339489 2.64791,0.02176 3.55102,0.805035 3.27893,3.38583 -0.10267,0.97393 -0.60791,2.849075 1.2257,2.618698 4.97542,-0.625107 3.58727,2.848618 3.71636,5.378449 0.0509,0.996879 0.008,1.998535 0.008,2.998016 0,8.017403 -0.002,7.951118 7.79967,7.766518 2.08513,-0.04934 3.63496,-0.120995 3.23022,-2.842575 -0.13899,-0.934609 -0.1866,-2.354111 1.25781,-2.123223 3.83379,0.612847 3.88248,-1.62371 3.75145,-4.374939 -0.1251,-2.626945 2.05526,-1.708908 3.26107,-1.634681 2.2891,0.140922 2.8338,-0.782326 2.73925,-2.885346 -0.14947,-3.324875 0.1529,-6.67601 -0.0986,-9.988506 -0.21052,-2.773209 0.9111,-3.426811 3.40134,-3.233086 2.3181,0.180332 4.6616,0.06371 6.99329,0.03196 2.94869,-0.04016 6.7727,1.018535 5.67634,-4.338474 -0.0322,-0.157158 0.0181,-0.331181 0.0299,-0.497342 5.20034,1.021656 5.07355,-6.345459 9.81542,-6.186851 4.15985,0.139145 8.32815,0.0092 12.49249,0.03576 2.96252,0.01889 6.73619,-0.989014 5.67993,4.353355 -0.17793,0.900021 0.28021,1.769512 1.32981,1.58765 4.56184,-0.790443 3.58024,2.429985 3.63822,4.912686 0.0156,0.665958 0.002,1.332584 0.002,1.998905 1e-4,8.486694 -0.004,8.543323 8.38245,9.09528 1.75255,0.115352 2.92833,0.291752 2.6243,2.421566 -0.25464,1.783668 0.25523,2.64907 2.36543,2.702232 2.37381,0.05979 2.89453,-0.950317 2.62956,-2.949131 -0.32283,-2.435299 1.37427,-2.116714 2.86794,-2.136044 1.68182,-0.02176 3.54774,-0.311401 3.12297,2.375149 -0.37465,2.369572 0.87024,2.855175 2.87952,2.651638 0.81369,-0.08243 1.65004,0.05893 2.47606,0.09845 -1.97214,5.68869 7.54693,5.369286 5.8009,11.303024 -0.69296,2.35492 -1.54703,6.442459 3.72583,5.63945 0.2471,-0.03762 0.77514,0.251656 0.78937,0.420861 0.70016,8.33667 7.02832,3.478012 10.74115,4.366302 2.42013,0.579003 6.45459,1.55674 5.63998,-3.712509 -0.0236,-0.152542 0.038,-0.458153 0.0692,-0.459412 4.09739,-0.165664 6.82489,-1.680542 6.36545,-6.384246 1.46842,-0.08209 2.94593,-0.303017 4.40265,-0.207268 1.4592,0.09591 1.19162,1.42614 1.08157,2.306976 -0.33602,2.689262 0.45212,4.066422 3.4401,3.643616 1.87353,-0.265114 1.58105,1.254555 1.58493,2.363624 0.0197,5.663659 0.0235,11.327485 -0.004,16.991075 -0.005,0.91871 0.28387,2.57833 -0.8732,2.45771 -6.08725,-0.63456 -3.9755,3.81089 -4.02567,6.55237 -0.0533,2.91464 0.1001,5.39619 -3.99918,4.61972 -1.9233,-0.36432 -2.14892,0.88486 -2.10104,2.40424 0.0629,1.99695 -0.0743,4.00245 0.0392,5.9949 0.10434,1.83245 -0.3646,2.88977 -2.44196,2.58645 -1.83453,-0.26785 -2.69357,0.33875 -2.64355,2.41092 0.0443,1.83655 0.40567,2.89671 2.47195,2.58656 0.16275,-0.0244 0.35867,-0.0565 0.49539,0.008 2.76434,1.30235 2.48618,7.07189 7.48871,5.0945 1.25845,3.54649 0.8262,7.26842 0.37683,10.78229 -0.28198,2.20495 -3.07684,0.776 -4.71365,1.08899 -2.60144,0.49745 -6.5055,-1.75202 -6.31623,3.96815 0.0659,1.99248 -3.05011,0.86522 -4.69049,1.00258 -3.04483,0.25497 -7.09674,-1.19966 -6.09042,4.51125 0.24469,1.38865 -0.85974,1.54338 -1.9296,1.53997 -1.99893,-0.006 -4.02722,-0.2155 -5.99011,0.0511 -3.04986,0.41428 -3.28976,-1.2927 -3.03342,-3.51992 0.22025,-1.91335 -0.48773,-2.60582 -2.48287,-2.59256 -1.92615,0.0128 -2.75272,0.55693 -2.54065,2.54097 0.22921,2.14418 0.12722,3.55085 -2.96054,3.69041 -3.07123,0.1388 -8.55846,-3.05891 -8.29871,4.27852 0.028,0.79193 -1.75244,0.53152 -2.71643,0.54103 -3.16438,0.0313 -6.32929,0.0119 -9.98642,0.012 z"
   id="path1428" />
<path
   fill="#add7ff"
   opacity="1"
   stroke="none"
   d="m 113.29555,148.01086 c -2.66542,-0.0542 -3.33006,1.21059 -3.29377,3.18122 0.0337,1.83123 -1.9e-4,3.6653 -0.0605,5.49626 -0.0682,2.07164 -2.71393,2.77258 -2.92002,2.14181 -1.33861,-4.0968 -6.83655,-3.96222 -7.79548,-7.50883 -0.771805,-2.85449 -1.908318,-3.37875 -4.354989,-3.35201 -2.666229,0.0292 -5.664474,0.91823 -6.233551,-3.53941 -0.297782,-2.33253 -3.088127,-1.03187 -4.735038,-1.45198 -2.075417,-0.52939 -5.756195,1.65503 -5.725487,-2.57788 0.02764,-3.81145 3.43544,-2.20958 5.424858,-2.32321 2.850342,-0.16281 5.470009,-0.10842 5.477364,-4.01386 0.0027,-1.44252 0.96659,-1.98568 2.325576,-2.00741 1.606003,-0.0257 2.638512,0.66749 2.532395,2.32936 -0.216355,3.38809 1.8088,3.71954 4.456093,3.64248 3.828749,-0.11146 7.663189,-0.0267 11.495199,-0.0275 2.47043,-4.9e-4 4.55889,-0.37068 5.46135,3.31501 0.81209,3.31658 4.58929,1.33866 7.0271,1.60169 1.61223,0.17394 4.19656,0.88828 4.44382,-1.78826 0.3346,-3.62181 2.72973,-3.13964 5.02199,-3.11876 3.06151,0.0279 5.74921,0.32605 6.44686,-4.16086 0.52321,-3.36479 4.15539,-1.42432 6.38693,-1.7917 1.83937,-0.30278 3.37205,0.3266 3.29285,2.61869 -0.078,2.25536 0.81263,3.46499 3.20153,3.33876 1.81214,-0.0957 2.80939,0.74405 2.85164,2.62697 0.0375,1.6684 0.98366,2.34298 2.58541,2.30535 1.35917,-0.0319 2.30432,-0.59525 2.32335,-2.02536 0.0391,-2.93782 2.00885,-2.94777 4.13179,-2.93128 4.66476,0.0363 9.33036,-0.0254 13.99491,0.0225 2.19434,0.0226 4.07425,-0.16378 3.95179,-3.07873 -0.0727,-1.73052 0.53668,-2.91888 2.54226,-2.88016 2.44054,0.0471 2.70203,1.81009 2.38451,3.48265 -0.52774,2.78003 2.26604,7.18659 -3.44818,7.64073 -4.38568,9.22021 -12.6357,3.27005 -18.99066,4.71273 -2.36579,0.53706 -4.68393,0.087 -4.56617,3.59831 0.0926,2.76123 -2.13061,2.67368 -3.92045,2.45393 -2.06027,-0.25296 -5.36858,1.44181 -5.79593,-1.942 -0.53093,-4.20386 -3.09821,-4.03229 -6.03731,-4.01761 -2.40091,0.012 -5.20274,0.72103 -5.34608,-3.2778 -0.0633,-1.76459 -1.76932,-1.65817 -3.11168,-1.67491 -1.52678,-0.0191 -2.64369,0.51689 -2.6781,2.22815 -0.0529,2.633 -1.81266,2.76047 -3.78609,2.74883 -4.8315,-0.0285 -9.66331,-0.006 -14.96011,0.004 z"
   id="path1430" />
<path
   fill="#add7ff"
   opacity="1"
   stroke="none"
   d="m 215.53464,147.8226 c -1.82437,-2.19434 -1.81783,-5.68887 -5.90728,-5.05128 -1.4044,0.21896 -1.59184,-1.38959 -1.54539,-2.61968 0.0546,-1.44664 0.8998,-2.02774 2.24977,-2.11328 1.64311,-0.1041 3.55591,0.0984 3.61087,-2.36517 0.13339,-5.97892 4.67565,-3.30382 7.39552,-3.53452 3.45446,-0.293 2.85723,2.79213 2.58181,4.69779 -0.76795,5.31332 1.56077,6.83131 6.45459,6.21678 2.46046,-0.30896 4.99125,-0.0359 7.48945,-0.076 1.14614,-0.0184 2.7555,0.0949 2.83919,-1.36603 0.25615,-4.47081 3.4435,-3.61404 6.13849,-3.58945 2.77441,0.0253 5.54822,0.30768 5.2494,-3.86567 -0.1,-1.39603 0.84679,-2.05252 2.23572,-2.09387 1.57973,-0.0471 2.70749,0.55897 2.59836,2.24627 -0.24689,3.81661 2.24847,4.04564 4.87976,3.63629 2.77023,-0.43092 6.83963,2.12349 7.42084,-3.74652 0.39777,-4.01735 4.29696,-1.71225 6.6116,-2.12649 2.34479,-0.41965 3.1517,1.01182 3.18909,3.27382 0.0621,3.76078 0.71493,7.7091 -4.5929,8.5258 -0.57095,6.31137 -5.43298,3.56334 -8.71167,4.06972 -0.95962,0.1482 -1.84408,-0.18541 -2.48865,-1.21941 -3.21658,-5.16011 -7.90528,-5.34018 -11.18083,-0.36192 -0.76144,1.15727 -1.55813,1.67154 -2.78392,1.61639 -2.30969,-0.10393 -3.41066,0.89804 -3.28569,3.24342 0.0983,1.84444 -0.82266,2.7596 -2.67198,2.8149 -0.8511,0.0255 -1.88292,0.24451 -1.99741,1.15636 -0.81706,6.5072 -5.80223,2.97029 -8.9582,3.70561 -1.26758,0.29535 -2.25917,-0.59776 -2.28028,-2.01874 -0.0316,-2.12903 -1.17747,-2.88287 -3.14416,-3.00163 -0.55707,-0.0337 -1.54843,-0.6247 -1.55031,-0.96451 -0.0425,-7.61002 -5.90472,-4.08314 -9.84579,-5.08902 z"
   id="path1432" />
<path
   fill="#add7ff"
   opacity="1"
   stroke="none"
   d="m 109.7845,70.634933 c 0.1181,-2.597099 1.05462,-3.909797 3.41765,-3.607505 2.50591,0.320556 5.8124,-1.352768 7.32535,1.278213 1.24343,2.162255 0.90689,5.208191 -0.024,7.728645 -0.44128,1.19484 -1.98948,0.942071 -3.13114,0.952271 -2.81509,0.02517 -5.63162,0.05719 -8.44542,-0.0072 -1.56697,-0.03588 -3.48607,0.437889 -3.83338,-2.021156 -0.37864,-2.68084 1.46716,-2.882485 3.36251,-3.145325 0.42897,-0.05948 0.80331,-0.512939 1.32841,-1.177933 z"
   id="path1434" />
<path
   fill="#add7ff"
   opacity="1"
   stroke="none"
   d="m 208.46118,83.004105 c -0.17062,-1.648186 -1.35258,-4.138764 0.98287,-4.684334 2.81605,-0.657852 5.87696,-0.868187 8.70254,0.253609 1.02947,0.408721 0.82916,1.689697 0.71582,2.661476 -0.13786,1.182006 -0.98736,1.668571 -2.06306,1.692276 -2.6296,0.05795 -5.26065,0.04907 -8.33817,0.07697 z"
   id="path1436" />
<path
   fill="#add7ff"
   opacity="1"
   stroke="none"
   d="m 101.89671,78.079994 c 2.69192,1.072823 2.62747,2.905182 1.23922,4.327271 -1.01188,1.036545 -3.02082,1.115753 -3.759931,-0.565705 -0.792396,-1.802696 -0.623809,-3.66967 2.520711,-3.761566 z"
   id="path1438" />
<path
   fill="#add7ff"
   opacity="1"
   stroke="none"
   d="m 230.08133,80.902481 c 0.0859,-3.14315 1.94836,-3.318787 3.75574,-2.528564 1.68583,0.737091 1.60656,2.745124 0.57388,3.758316 -1.41936,1.39257 -3.25063,1.456703 -4.32962,-1.229752 z"
   id="path1440" />
<path
   fill="#add7ff"
   opacity="1"
   stroke="none"
   d="m 207.99301,82.992928 c -0.007,0.651222 -0.0109,1.309562 -0.005,1.967804 0.0153,1.628166 -0.28733,2.975234 -2.35608,2.988632 -1.54692,0.01001 -2.5029,-0.531441 -2.57955,-2.235764 -0.085,-1.889892 0.80577,-2.72802 2.64045,-2.695251 0.49345,0.0088 0.98736,-0.0081 1.90103,-0.0088 0.41995,0.0044 0.40582,-0.0096 0.39883,-0.01665 z"
   id="path1442" />
<path
   fill="#a2d1ff"
   opacity="1"
   stroke="none"
   d="m 71.996704,131.57074 c -0.651886,0.40863 -1.311104,0.40758 -1.970192,0.4164 -1.6343,0.0219 -2.975052,-0.28252 -2.980308,-2.36013 -0.0039,-1.54795 0.523491,-2.50393 2.236961,-2.57856 1.889069,-0.0823 2.74118,0.78638 2.698418,2.63403 -0.01144,0.49403 0.0045,0.98869 0.01512,1.88826 z"
   id="path1444" />
<path
   fill="#add7ff"
   opacity="1"
   stroke="none"
   d="m 149.08133,129.9025 c 0.086,-3.14314 1.94839,-3.31881 3.75577,-2.52858 1.68583,0.7371 1.60652,2.74514 0.57383,3.75834 -1.41931,1.39258 -3.25061,1.45667 -4.3296,-1.22976 z"
   id="path1446" />
<path
   fill="#add7ff"
   opacity="1"
   stroke="none"
   d="m 259.31964,127.23498 c 2.66434,-0.42722 3.89124,0.40574 3.58209,2.86646 -0.22628,1.80112 -1.58801,2.1125 -2.91308,1.76231 -2.95914,-0.78201 -2.19266,-2.6479 -0.66901,-4.62877 z"
   id="path1448" />
<path
   fill="#add7ff"
   opacity="1"
   stroke="none"
   d="m 229.91867,74.097519 c -0.0859,3.14315 -1.94836,3.318794 -3.75574,2.528564 -1.68583,-0.737083 -1.60656,-2.745124 -0.57388,-3.758323 1.41934,-1.392571 3.25063,-1.456696 4.32962,1.229759 z"
   id="path1450" />
<path
   fill="#add7ff"
   opacity="1"
   stroke="none"
   d="m 142.9964,72.419388 c 0.64789,-0.405548 1.30623,-0.400742 1.96445,-0.407158 1.62878,-0.0159 2.975,0.287773 2.98838,2.35611 0.01,1.546997 -0.53222,2.502662 -2.23636,2.578788 -1.89001,0.08443 -2.72753,-0.80706 -2.69413,-2.641479 0.009,-0.493431 -0.007,-0.987335 -0.0223,-1.886261 z"
   id="path1452" />
<path
   fill="#add7ff"
   opacity="1"
   stroke="none"
   d="m 143.00706,71.993004 c -0.65122,-0.0065 -1.30957,-0.01086 -1.9678,-0.0047 -1.62822,0.0153 -2.97519,-0.287369 -2.9886,-2.35611 -0.01,-1.546951 0.53146,-2.502914 2.23575,-2.579498 1.88986,-0.08495 2.72805,0.805771 2.69528,2.640465 -0.009,0.493446 0.008,0.98735 0.009,1.901009 -0.004,0.419952 0.01,0.405807 0.0166,0.398811 z"
   id="path1454" />
<path
   fill="#add7ff"
   opacity="1"
   stroke="none"
   d="m 74.744125,132.28537 c 2.912674,0.26367 2.724663,2.41829 1.777886,3.7433 -1.085213,1.51874 -3.004105,1.60826 -4.405632,-0.66502 0.723106,-1.21169 1.422241,-2.15036 2.627746,-3.07828 z"
   id="path1456" />
<path
   fill="#add7ff"
   opacity="1"
   stroke="none"
   d="m 74.620331,132.03145 c 0.268257,1.494 -0.387879,2.5354 -2.244759,2.92273 -0.335556,-0.7119 -0.341751,-1.46718 -0.359772,-2.60036 -0.01182,-0.37787 -0.01237,-0.35094 -0.0259,-0.35049 0.742004,0.005 1.497528,0.009 2.630432,0.0281 z"
   id="path1458" />
</svg>
