<?xml version="1.0" encoding="UTF-8" standalone="no"?>
<svg
   version="1.1"
   id="Layer_1"
   x="0px"
   y="0px"
   width="3686400"
   viewBox="0 0 3686400 1254400"
   enable-background="new 0 0 1920 1120"
   xml:space="preserve"
   sodipodi:docname="housepixel-1.png_adobe_express.svg"
   inkscape:version="1.2.2 (732a01da63, 2022-12-09)"
   height="1254400"
   xmlns:inkscape="http://www.inkscape.org/namespaces/inkscape"
   xmlns:sodipodi="http://sodipodi.sourceforge.net/DTD/sodipodi-0.dtd"
   xmlns="http://www.w3.org/2000/svg"
   xmlns:svg="http://www.w3.org/2000/svg"><defs
   id="defs1020" /><sodipodi:namedview
   id="namedview1018"
   pagecolor="#ffffff"
   bordercolor="#000000"
   borderopacity="0.25"
   inkscape:showpageshadow="2"
   inkscape:pageopacity="0.0"
   inkscape:pagecheckerboard="0"
   inkscape:deskcolor="#d1d1d1"
   showgrid="false"
   inkscape:zoom="4"
   inkscape:cx="508.875"
   inkscape:cy="385.75"
   inkscape:window-width="1920"
   inkscape:window-height="1017"
   inkscape:window-x="1912"
   inkscape:window-y="-8"
   inkscape:window-maximized="1"
   inkscape:current-layer="Layer_1" />
<path
   id="path987"
   style="stroke-width:0.169236"
   d="m 652.88281,300.08984 c -0.0135,0.001 -0.0236,0.005 -0.0371,0.006 0.0127,0.0378 0.0804,0.12126 0.12305,0.13672 0.14444,0.0523 0.29273,0.0936 0.44141,0.13281 -0.17201,-0.1002 -0.34264,-0.20349 -0.52735,-0.27539 z m -90.91015,0.79102 c -1.99348,4.20527 -7.24509,7.74895 -15.90821,8.19141 -1.59158,0.0813 -3.18382,0.16284 -4.77539,0.24414 -11.08707,0.52 -22.18518,0.969 -33.28711,0.83203 -7.23432,-0.0496 -14.46735,-0.13758 -21.70117,-0.23438 -7.06399,-0.0428 -14.12759,-0.0985 -21.1914,-0.16406 h -12.68165 -3.36328 c -0.92406,1.27628 -1.82742,2.56791 -2.80468,3.80469 -1.31664,1.73552 -2.6028,3.4956 -3.86719,5.26953 -0.53288,0.79482 -1.08752,1.57735 -1.51367,2.4375 -6.53049,13.18096 -17.29716,13.37338 -21.625,6.52148 -0.32059,0.49593 -0.64456,0.98964 -0.95508,1.49219 -0.51293,0.72285 -0.94848,1.50128 -1.48242,2.21094 -0.0525,0.0771 -0.11262,0.1497 -0.16602,0.22656 0.14155,0.32807 0.28312,0.6645 0.42773,1.03711 -0.007,-0.0609 0.0965,0.22761 0.17383,0.44727 -0.0333,-0.0926 -0.0703,-0.18329 -0.10547,-0.27539 -0.0231,-0.0605 -0.0453,-0.11257 -0.0684,-0.17188 0.005,0.039 0.0513,0.20671 0.18555,0.64648 2.94493,9.64426 -1.97185,7.61444 -8.04883,4.07813 -0.47693,0.24576 -0.95141,0.49691 -1.44336,0.71484 -0.32873,0.14569 -0.60677,0.17342 -0.91796,0.27539 -0.46889,1.21807 -0.94158,2.41881 -1.42579,3.54883 0.007,61.9856 0.0107,123.97778 0,185.96289 -1.4e-4,0.7911 0.11419,0.96896 0.62305,0.96875 49.68184,-0.0206 99.36942,-0.0195 149.11914,-0.0195 36.80923,0 73.55552,-0.002 110.29688,0.0195 0.50927,3.1e-4 0.62318,-0.17828 0.62304,-0.96875 -0.0109,-63.92846 -0.008,-127.86383 0,-191.79297 -0.83515,-0.40827 -1.70117,-1.06442 -2.54687,-2.02343 -0.27437,-0.31114 -0.56658,-0.60389 -0.83985,-0.91602 -0.54524,-0.55126 -1.04955,-1.16752 -1.71093,-1.58398 -2.77881,-1.74976 -3.67496,-3.9104 -3.28321,-5.53711 -0.12148,-0.10167 -0.22345,-0.22574 -0.3457,-0.32422 -1.05039,-0.81003 -2.05616,-1.6776 -3.01367,-2.59571 -0.73237,-0.6748 -1.53783,-1.26456 -2.26367,-1.94726 -0.43329,-0.4222 -0.87847,-0.82784 -1.35352,-1.20313 -0.64174,-0.48909 -1.30149,-0.95398 -1.96289,-1.41601 -0.85308,-0.62107 -1.75745,-1.16858 -2.58594,-1.82422 -0.44569,-0.38457 0.11768,0.0903 -0.77929,-0.57617 -0.63851,-0.47439 -1.2246,-1.01805 -1.83789,-1.52344 -0.79942,-0.78114 -1.6445,-1.51548 -2.49805,-2.23633 -0.90759,-0.76304 -1.8065,-1.5386 -2.71289,-2.30273 -1.59376,-1.3436 -2.42066,-2.76783 -2.67969,-4.04492 -0.37849,-0.28219 -0.77334,-0.54088 -1.15039,-0.82618 -0.8664,-0.71947 -1.73471,-1.43512 -2.5918,-2.16601 -0.78041,-0.66551 -1.3646,-1.34666 -1.78515,-2.01563 -1.7208,0.0742 -3.44118,0.16008 -5.16211,0.22852 -4.50591,0.25205 -9.00661,0.61174 -13.51953,0.71094 -4.09339,0.0759 -8.18745,0.1413 -12.28125,0.0723 -4.01605,-0.038 -8.03245,-0.0917 -12.04688,-0.21679 -4.19054,-0.1407 -8.37801,-0.34769 -12.5664,-0.53907 -2.60837,-0.11733 -5.21773,-0.223 -7.82422,-0.37304 -1.59152,-0.0492 -3.18358,-0.0811 -4.77539,-0.12305 z m 94.98828,11.01562 c 0.10427,0.0756 0.19545,0.16806 0.30078,0.24219 0.0114,0.008 0.0218,0.0174 0.0332,0.0254 0.0112,-0.0763 0.0163,-0.13902 0.0293,-0.2207 -0.12406,-0.0117 -0.24239,-0.0318 -0.36328,-0.0469 z m 3.02148,2.28125 c -0.0462,0.002 -0.0783,-9e-4 -0.12304,0.002 0.0574,0.047 0.11667,0.0914 0.17382,0.13867 -0.008,-0.0202 -0.0159,-0.0383 -0.0234,-0.0586 -0.01,-0.027 -0.0177,-0.055 -0.0273,-0.082 z" />
<path
   fill="#b0372e"
   opacity="1"
   stroke="none"
   d="m 589.97534,440 c -1.8e-4,24.15417 0.0248,47.80847 -0.0584,71.46234 -0.005,1.53143 1.22022,4.1806 -1.7008,4.35004 -3.48755,0.20233 -2.12635,-2.79541 -2.12873,-4.40814 -0.0757,-52.30561 -0.0515,-104.61139 -0.0757,-156.91712 -0.003,-7.28369 0.83063,-6.49673 -6.28577,-6.49972 -52.97204,-0.0223 -105.94443,-0.0862 -158.91562,0.12487 -4.35843,0.0174 -7.03463,-1.78933 -8.62988,-4.9606 -1.93292,-3.84262 -1.70535,-7.52127 2.04413,-11.07043 10.2789,-9.72983 20.16949,-19.87372 30.09064,-29.97464 2.12033,-2.15872 4.20993,-3.1865 7.34948,-3.18103 58.13581,0.10162 116.27195,0.0982 174.40775,0.005 2.94452,-0.005 4.11676,1.28027 6.06817,3.3306 7.53406,7.91592 15.58387,15.37088 23.78779,22.60491 3.35284,2.95652 6.41711,6.12561 9.38372,9.40729 1.44648,1.60004 0.74341,3.81427 0.4538,5.71561 -0.19055,1.25107 -1.56104,0.94955 -2.51605,0.96951 -0.81653,0.0171 -1.84949,0.0522 -2.0473,-0.94934 -1.49494,-7.57007 -8.82489,-9.37442 -13.24286,-13.99908 -3.8487,-4.02881 -9.0268,-6.70014 -11.92511,-11.56641 -1.50012,-2.51877 -4.07587,-3.95133 -6.0044,-5.93704 -2.45532,-2.52805 -5.0758,1.18322 -5.52331,3.1325 -1.19519,5.20606 -5.3573,8.22007 -8.82166,10.61591 -6.05176,4.18527 -10.47729,10.07138 -16.56805,14.19 -1.97815,1.33765 -3.47193,5.47443 -3.19348,9.0387 0.1037,1.32684 0.57421,3.60461 -1.72132,3.36026 -4.99383,-0.53146 -4.23456,2.73514 -4.23346,5.69995 0.0107,28.31857 0.006,56.63718 0.006,85.45575 z"
   id="path989" />
<path
   fill="#eac9ba"
   opacity="1"
   stroke="none"
   d="m 527.02093,443 c 14.6518,3e-5 28.80744,0.10644 42.9593,-0.0795 3.28076,-0.0431 4.11499,0.86685 4.09533,4.11466 -0.14148,23.31207 -0.14252,46.62582 10e-4,69.93783 0.0201,3.26306 -0.84039,4.13794 -4.10443,4.10486 -16.65039,-0.16876 -33.30438,-0.17071 -49.95471,10e-4 -3.28327,0.0339 -4.11286,-0.8725 -4.09284,-4.11645 0.14179,-22.97901 0.19397,-45.96048 -0.0333,-68.93814 -0.0411,-4.16422 0.97314,-5.72455 5.14422,-5.07132 1.78791,0.27996 3.65613,0.0468 5.98535,0.0468 z"
   id="path991" />
<path
   fill="#eac9ba"
   opacity="1"
   stroke="none"
   d="m 469,413.01022 c -9.82669,-6e-5 -19.1553,-0.10629 -28.47885,0.0641 -2.82215,0.0516 -3.62143,-0.75903 -3.59497,-3.58801 0.1372,-14.65491 0.13653,-29.31247 3.6e-4,-43.96744 -0.0262,-2.82098 0.76261,-3.61478 3.58857,-3.59228 16.32071,0.12979 32.64343,0.12918 48.96414,4.2e-4 2.81756,-0.0222 3.62112,0.75681 3.59466,3.58625 -0.13726,14.6549 -0.13659,29.3125 -4.9e-4,43.96746 0.0262,2.82053 -0.75521,3.67896 -3.58966,3.59354 -6.65585,-0.20053 -13.32186,-0.0642 -20.48376,-0.0641 z"
   id="path993" />
<path
   fill="#eac9ba"
   opacity="1"
   stroke="none"
   d="m 527.02966,361.98978 c 13.98548,0 27.47809,0.11221 40.96631,-0.0804 3.29212,-0.047 4.13141,0.87992 4.09113,4.12134 -0.17792,14.32157 -0.18445,28.64798 0.004,42.96927 0.0433,3.29883 -0.89203,4.12122 -4.12531,4.08633 -15.65441,-0.16879 -31.3128,-0.17584 -46.96691,0.004 -3.30036,0.038 -4.12708,-0.89462 -4.08509,-4.12671 0.17932,-13.82178 0.28974,-27.65237 -0.044,-41.46841 -0.11103,-4.59729 1.17938,-6.2724 5.67364,-5.5384 1.29785,0.21198 2.65955,0.0325 4.48651,0.0325 z"
   id="path995" />
<path
   fill="#eac9ba"
   opacity="1"
   stroke="none"
   d="m 464,494.00296 c -7.82562,-3e-5 -15.15454,-0.12753 -22.47516,0.0641 -2.82925,0.0741 -3.61938,-0.76819 -3.59125,-3.59113 0.13953,-13.98385 0.13987,-27.97067 -1.8e-4,-41.95453 -0.0283,-2.82687 0.77414,-3.6109 3.5929,-3.58725 15.64907,0.1315 31.30041,0.13169 46.94949,-2.1e-4 2.82187,-0.0238 3.61883,0.76584 3.59064,3.58957 -0.13965,13.98385 -0.13986,27.97064 6e-5,41.9545 0.0283,2.82605 -0.76816,3.65402 -3.5932,3.58905 -7.98737,-0.18363 -15.98172,-0.0642 -24.4733,-0.0641 z"
   id="path997" />
<path
   fill="#b0372e"
   opacity="1"
   stroke="none"
   d="m 533.05273,488.48633 c 0.60486,3.06271 -2.78906,3.06213 -3.73419,5.13159 -0.18298,0.40066 -2.7995,0.72592 -2.94653,-1.26801 -0.10468,-1.41958 -1.12329,-3.57263 1.40662,-4.00427 1.59637,-0.2724 3.28057,-0.0296 5.2741,0.14069 z"
   id="path999" />
<path
   fill="#b0372e"
   opacity="1"
   stroke="none"
   d="m 565.5686,463.9491 c -0.0434,1.45404 0.86512,2.90817 -0.7254,3.63202 -0.31122,0.14163 -0.84619,-0.20841 -1.27795,-0.33164 0.50006,-1.26782 -0.0652,-3.091 2.00335,-3.30038 z"
   id="path1001" />
<path
   fill="#b0372e"
   opacity="1"
   stroke="none"
   d="m 565.76123,510.69879 c -0.2511,0.9111 -0.21783,2.51489 -1.18976,1.23505 -0.83508,-1.09973 -0.52966,-2.8317 0.062,-4.31033 1.81305,0.35107 0.84656,1.80407 1.12781,3.07528 z"
   id="path1003" />
<path
   fill="#000000"
   opacity="1"
   stroke="none"
   d="m 443.47034,386.25287 c 7.42938,-0.44995 7.42099,-0.44995 7.43286,-7.82037 0.006,-3.82703 0.037,-7.65418 0.0967,-11.48063 0.004,-0.27807 0.33517,-0.55102 0.52005,-0.82852 1.9682,-0.18295 1.54233,1.31314 1.55716,2.35578 0.0521,3.66073 0.15179,7.32846 -0.0115,10.98257 -0.18201,4.07324 -0.36151,7.85571 5.65534,6.48477 0.82846,-0.18875 2.30075,-0.32092 2.09494,1.21326 -0.17914,1.33536 -1.59674,1.05917 -2.43158,0.89572 -5.06302,-0.99142 -5.62726,1.7406 -5.35334,5.82279 0.2544,3.7915 -0.0609,7.62228 -0.17077,11.43441 -0.006,0.19824 -0.43695,0.38419 -1.03171,0.87308 -1.75583,-3.48392 -0.90582,-7.07559 -0.84643,-10.45843 0.0824,-4.69452 0.56219,-9.20032 -6.50742,-7.68937 -0.94635,0.20227 -1.50735,-0.46286 -1.00427,-1.78506 z"
   id="path1005" />
<path
   fill="#000000"
   opacity="1"
   stroke="none"
   d="m 478.10022,375.99817 c 0,1.81515 0.15359,3.16748 -0.0286,4.47287 -0.56326,4.03573 0.40244,6.40942 5.16092,5.49127 0.8816,-0.17014 2.69681,-0.70782 2.56904,1.20764 -0.0877,1.31336 -1.58713,1.04953 -2.42316,0.88568 -5.06717,-0.99298 -5.52121,1.75089 -5.37369,5.82257 0.14441,3.98441 0.71317,8.08942 -0.70566,12.86737 -2.27093,-2.94409 -1.19903,-5.61444 -1.35449,-8.01889 -0.19275,-2.9822 0.34909,-6.05703 -0.16177,-8.96252 -0.68729,-3.90869 -5.18885,0.13782 -6.71988,-2.60754 0.17203,-0.37403 0.33212,-0.89612 0.41803,-0.88419 6.50879,0.90381 6.8562,-2.89664 6.5173,-7.9017 -0.27426,-4.05106 -0.54608,-8.20862 0.90598,-12.32663 1.82818,2.94165 0.90206,6.30539 1.19598,9.95407 z"
   id="path1007" />
<path
   fill="#000000"
   opacity="1"
   stroke="none"
   d="m 527.01257,385.89972 c 2.84082,0.33029 4.06427,-0.25903 3.95557,-3.12003 -0.20184,-5.3117 6e-5,-10.63922 0.0736,-15.95959 0.003,-0.23569 0.39807,-0.46594 0.62152,-0.71079 1.91626,0.0171 1.39197,1.50635 1.40961,2.51154 0.0643,3.65997 0.24786,7.33859 -0.0296,10.97845 -0.33484,4.39267 0.14667,7.59 5.81427,6.33887 0.72028,-0.15903 1.86908,-0.20657 1.9729,0.87338 0.14887,1.54947 -1.24749,1.43222 -2.08441,1.2425 -5.9544,-1.34964 -5.76886,2.33499 -5.71966,6.45694 0.0452,3.78811 0.73877,7.70193 -1.03296,11.40692 -1.74713,-4.17813 -1.05975,-8.55887 -1.01221,-12.82215 0.0385,-3.45535 -0.25635,-5.82058 -4.65033,-5.07541 -0.99469,0.16868 -3.20019,0.92039 -3.07794,-1.12045 0.10504,-1.75332 2.15399,-0.6904 3.75964,-1.00018 z"
   id="path1009" />
<path
   fill="#000000"
   opacity="1"
   stroke="none"
   d="m 564.71814,385.94369 c 2.07422,2.55857 -0.0742,2.32486 -1.28363,2.10169 -4.97412,-0.91803 -5.6084,1.63449 -5.4314,5.78223 0.17053,3.99813 0.67432,8.11248 -0.69708,13.00549 -2.39026,-3.89984 -1.25641,-7.35095 -1.34363,-10.55725 -0.19836,-7.29447 -0.064,-7.28781 -6.92029,-8.27539 -0.37188,-0.0536 -0.68493,-0.51584 -0.9895,-0.75925 0.1875,-0.44076 0.26831,-0.93426 0.42737,-0.96094 7.41907,-1.24411 7.41223,-1.23941 7.42365,-9.40255 0.005,-3.32734 0.0376,-6.65488 0.10284,-9.98145 0.005,-0.2608 0.36664,-0.51462 0.56805,-0.77893 1.95368,-0.10458 1.48462,1.39276 1.50067,2.41727 0.0575,3.66021 0.36078,7.36074 -0.0564,10.97357 -0.57953,5.01867 0.88305,7.45749 6.69934,6.43551 z"
   id="path1011" />
<path
   fill="#000000"
   opacity="1"
   stroke="none"
   d="m 447.01007,467.89972 c 2.84088,0.32974 4.07315,-0.25632 3.95569,-3.12064 -0.22785,-5.55462 -0.0666,-11.12521 -0.0666,-16.68368 2.68231,0.0288 2.1546,1.51843 2.17364,2.52356 0.0663,3.49484 0.19522,7.00189 -0.0156,10.4852 -0.25867,4.27426 -0.43945,8.16647 5.8075,6.83319 0.72268,-0.15424 1.87008,-0.20532 1.9714,0.87722 0.14514,1.55091 -1.25317,1.42884 -2.08893,1.23935 -5.9599,-1.35116 -5.87378,2.33631 -5.68783,6.46183 0.18627,4.13253 0.0409,8.28006 0.0409,12.42099 -0.73349,0.002 -1.46698,0.004 -2.20047,0.006 0,-4.61624 -0.16724,-9.24054 0.0546,-13.8461 0.16723,-3.47128 -0.23877,-5.81939 -4.62845,-5.07614 -0.99515,0.16852 -3.20181,0.92087 -3.07834,-1.12137 0.10589,-1.7517 2.1557,-0.68969 3.76248,-0.99917 z"
   id="path1013" />
<path
   fill="#000000"
   opacity="1"
   stroke="none"
   d="m 478.10022,482.84924 c -0.28745,1.99927 0.68124,3.76166 -1.13767,5.36206 -2.0072,-2.3645 -0.84606,-5.05551 -1.01385,-7.45053 -0.20892,-2.98254 0.34033,-6.05914 -0.16202,-8.97012 -0.68179,-3.95044 -5.1831,0.10638 -6.71594,-2.63239 0.15234,-0.35345 0.30469,-0.88067 0.38568,-0.8699 6.43558,0.85318 6.94223,-2.82797 6.54636,-7.90036 -0.29004,-3.71613 -0.6131,-7.56305 0.32538,-11.25961 2.18792,-0.14545 1.72943,1.35287 1.74755,2.38339 0.0586,3.32889 0.0714,6.66025 0.0116,9.98904 -0.0649,3.6113 -0.79932,7.64923 5.16272,6.43586 0.80688,-0.16419 1.75546,0.0725 1.61932,1.24819 -0.0927,0.80057 -0.86682,1.00608 -1.49685,0.87766 -5.70059,-1.16241 -5.56446,2.44748 -5.29648,6.31406 0.13782,1.98837 0.0242,3.9942 0.0242,6.47265 z"
   id="path1015" />
</svg>
