<?xml version="1.0" encoding="UTF-8"?>
<svg id="Layer_1" data-name="Layer 1" xmlns="http://www.w3.org/2000/svg" viewBox="0 0 260.77 230.02">
  <defs>
    <style>
      .cls-1 {
        fill: #eac9ba;
      }

      .cls-2 {
        fill: #b0372e;
      }
    </style>
  </defs>
  <path id="path987" d="m247.46,1.16s-.02,0-.04,0c.01.04.08.12.12.14.14.05.29.09.44.13-.17-.1-.34-.2-.53-.28h0Zm-90.91.79c-1.99,4.21-7.25,7.75-15.91,8.19-1.59.08-3.18.16-4.78.24-11.09.52-22.19.97-33.29.83-7.23-.05-14.47-.14-21.7-.23-7.06-.04-14.13-.1-21.19-.16h-16.04c-.92,1.28-1.83,2.57-2.8,3.8-1.32,1.74-2.6,3.5-3.87,5.27-.53.79-1.09,1.58-1.51,2.44-6.53,13.18-17.3,13.37-21.62,6.52-.32.5-.64.99-.96,1.49-.51.72-.95,1.5-1.48,2.21-.05.08-.11.15-.17.23.14.33.28.66.43,1.04,0-.06.1.23.17.45-.03-.09-.07-.18-.11-.28-.02-.06-.05-.11-.07-.17,0,.04.05.21.19.65,2.94,9.64-1.97,7.61-8.05,4.08-.48.25-.95.5-1.44.71-.33.15-.61.17-.92.28C.96,40.76.48,41.96,0,43.09,0,105.07.01,167.07,0,229.05c0,.79.11.97.62.97,49.68-.02,99.37-.02,149.12-.02,36.81,0,73.56,0,110.3.02.51,0,.62-.18.62-.97-.01-63.93,0-127.86,0-191.79-.84-.41-1.7-1.06-2.55-2.02-.27-.31-.57-.6-.84-.92-.55-.55-1.05-1.17-1.71-1.58-2.78-1.75-3.67-3.91-3.28-5.54-.12-.1-.22-.23-.35-.32-1.05-.81-2.06-1.68-3.01-2.6-.73-.67-1.54-1.26-2.26-1.95-.43-.42-.88-.83-1.35-1.2-.64-.49-1.3-.95-1.96-1.42-.85-.62-1.76-1.17-2.59-1.82-.45-.38.12.09-.78-.58-.64-.47-1.22-1.02-1.84-1.52-.8-.78-1.64-1.52-2.5-2.24-.91-.76-1.81-1.54-2.71-2.3-1.59-1.34-2.42-2.77-2.68-4.04-.38-.28-.77-.54-1.15-.83-.87-.72-1.73-1.44-2.59-2.17-.78-.67-1.36-1.35-1.79-2.02-1.72.07-3.44.16-5.16.23-4.51.25-9.01.61-13.52.71-4.09.08-8.19.14-12.28.07-4.02-.04-8.03-.09-12.05-.22-4.19-.14-8.38-.35-12.57-.54-2.61-.12-5.22-.22-7.82-.37-1.59-.05-3.18-.08-4.78-.12h0Zm94.99,11.02c.1.08.2.17.3.24.01,0,.02.02.03.03.01-.08.02-.14.03-.22-.12-.01-.24-.03-.36-.05h0Zm3.02,2.28s-.08,0-.12,0c.06.05.12.09.17.14,0-.02-.02-.04-.02-.06-.01-.03-.02-.05-.03-.08h0Z"/>
  <path id="path989" class="cls-2" d="m184.55,141.07c0,24.15.02,47.81-.06,71.46,0,1.53,1.22,4.18-1.7,4.35-3.49.2-2.13-2.8-2.13-4.41-.08-52.31-.05-104.61-.08-156.92,0-7.28.83-6.5-6.29-6.5-52.97-.02-105.94-.09-158.92.12-4.36.02-7.03-1.79-8.63-4.96-1.93-3.84-1.71-7.52,2.04-11.07C19.08,23.43,28.97,13.28,38.89,3.18,41.01,1.02,43.1,0,46.24,0c58.14.1,116.27.1,174.41,0,2.94,0,4.12,1.28,6.07,3.33,7.53,7.92,15.58,15.37,23.79,22.6,3.35,2.96,6.42,6.13,9.38,9.41,1.45,1.6.74,3.81.45,5.72-.19,1.25-1.56.95-2.52.97-.82.02-1.85.05-2.05-.95-1.49-7.57-8.82-9.37-13.24-14-3.85-4.03-9.03-6.7-11.93-11.57-1.5-2.52-4.08-3.95-6-5.94-2.46-2.53-5.08,1.18-5.52,3.13-1.2,5.21-5.36,8.22-8.82,10.62-6.05,4.19-10.48,10.07-16.57,14.19-1.98,1.34-3.47,5.47-3.19,9.04.1,1.33.57,3.6-1.72,3.36-4.99-.53-4.23,2.74-4.23,5.7.01,28.32,0,56.64,0,85.46h0Z"/>
  <path id="path991" class="cls-1" d="m121.59,144.07c14.65,0,28.81.11,42.96-.08,3.28-.04,4.11.87,4.1,4.11-.14,23.31-.14,46.63,0,69.94.02,3.26-.84,4.14-4.1,4.1-16.65-.17-33.3-.17-49.95,0-3.28.03-4.11-.87-4.09-4.12.14-22.98.19-45.96-.03-68.94-.04-4.16.97-5.72,5.14-5.07,1.79.28,3.66.05,5.99.05h0Z"/>
  <path id="path993" class="cls-1" d="m63.57,114.08c-9.83,0-19.16-.11-28.48.06-2.82.05-3.62-.76-3.59-3.59.14-14.65.14-29.31,0-43.97-.03-2.82.76-3.61,3.59-3.59,16.32.13,32.64.13,48.96,0,2.82-.02,3.62.76,3.59,3.59-.14,14.65-.14,29.31,0,43.97.03,2.82-.76,3.68-3.59,3.59-6.66-.2-13.32-.06-20.48-.06h0Z"/>
  <path id="path995" class="cls-1" d="m121.6,63.06c13.99,0,27.48.11,40.97-.08,3.29-.05,4.13.88,4.09,4.12-.18,14.32-.18,28.65,0,42.97.04,3.3-.89,4.12-4.13,4.09-15.65-.17-31.31-.18-46.97,0-3.3.04-4.13-.89-4.09-4.13.18-13.82.29-27.65-.04-41.47-.11-4.6,1.18-6.27,5.67-5.54,1.3.21,2.66.03,4.49.03h0Z"/>
  <path id="path997" class="cls-1" d="m58.57,195.08c-7.83,0-15.15-.13-22.48.06-2.83.07-3.62-.77-3.59-3.59.14-13.98.14-27.97,0-41.95-.03-2.83.77-3.61,3.59-3.59,15.65.13,31.3.13,46.95,0,2.82-.02,3.62.77,3.59,3.59-.14,13.98-.14,27.97,0,41.95.03,2.83-.77,3.65-3.59,3.59-7.99-.18-15.98-.06-24.47-.06Z"/>
  <path id="path999" class="cls-2" d="m127.63,189.56c.6,3.06-2.79,3.06-3.73,5.13-.18.4-2.8.73-2.95-1.27-.1-1.42-1.12-3.57,1.41-4,1.6-.27,3.28-.03,5.27.14Z"/>
  <path id="path1001" class="cls-2" d="m160.14,165.02c-.04,1.45.87,2.91-.73,3.63-.31.14-.85-.21-1.28-.33.5-1.27-.07-3.09,2-3.3Z"/>
  <path id="path1003" class="cls-2" d="m160.33,211.77c-.25.91-.22,2.51-1.19,1.24-.84-1.1-.53-2.83.06-4.31,1.81.35.85,1.8,1.13,3.08h0Z"/>
  <path id="path1005" d="m38.04,87.33q7.43-.45,7.43-7.82c0-3.83.04-7.65.1-11.48,0-.28.34-.55.52-.83,1.97-.18,1.54,1.31,1.56,2.36.05,3.66.15,7.33-.01,10.98-.18,4.07-.36,7.86,5.66,6.48.83-.19,2.3-.32,2.09,1.21-.18,1.34-1.6,1.06-2.43.9-5.06-.99-5.63,1.74-5.35,5.82.25,3.79-.06,7.62-.17,11.43,0,.2-.44.38-1.03.87-1.76-3.48-.91-7.08-.85-10.46.08-4.69.56-9.2-6.51-7.69-.95.2-1.51-.46-1-1.79h0Z"/>
  <path id="path1007" d="m72.67,77.07c0,1.82.15,3.17-.03,4.47-.56,4.04.4,6.41,5.16,5.49.88-.17,2.7-.71,2.57,1.21-.09,1.31-1.59,1.05-2.42.89-5.07-.99-5.52,1.75-5.37,5.82.14,3.98.71,8.09-.71,12.87-2.27-2.94-1.2-5.61-1.35-8.02-.19-2.98.35-6.06-.16-8.96-.69-3.91-5.19.14-6.72-2.61.17-.37.33-.9.42-.88,6.51.9,6.86-2.9,6.52-7.9-.27-4.05-.55-8.21.91-12.33,1.83,2.94.9,6.31,1.2,9.95Z"/>
  <path id="path1009" d="m121.58,86.97c2.84.33,4.06-.26,3.96-3.12-.2-5.31,0-10.64.07-15.96,0-.24.4-.47.62-.71,1.92.02,1.39,1.51,1.41,2.51.06,3.66.25,7.34-.03,10.98-.33,4.39.15,7.59,5.81,6.34.72-.16,1.87-.21,1.97.87.15,1.55-1.25,1.43-2.08,1.24-5.95-1.35-5.77,2.33-5.72,6.46.05,3.79.74,7.7-1.03,11.41-1.75-4.18-1.06-8.56-1.01-12.82.04-3.46-.26-5.82-4.65-5.08-.99.17-3.2.92-3.08-1.12.11-1.75,2.15-.69,3.76-1Z"/>
  <path id="path1011" d="m159.29,87.02c2.07,2.56-.07,2.32-1.28,2.1-4.97-.92-5.61,1.63-5.43,5.78.17,4,.67,8.11-.7,13.01-2.39-3.9-1.26-7.35-1.34-10.56-.2-7.29-.06-7.29-6.92-8.28-.37-.05-.68-.52-.99-.76.19-.44.27-.93.43-.96q7.42-1.24,7.42-9.4c0-3.33.04-6.65.1-9.98,0-.26.37-.51.57-.78,1.95-.1,1.48,1.39,1.5,2.42.06,3.66.36,7.36-.06,10.97-.58,5.02.88,7.46,6.7,6.44Z"/>
  <path id="path1013" d="m41.58,168.97c2.84.33,4.07-.26,3.96-3.12-.23-5.55-.07-11.13-.07-16.68,2.68.03,2.15,1.52,2.17,2.52.07,3.49.2,7-.02,10.49-.26,4.27-.44,8.17,5.81,6.83.72-.15,1.87-.21,1.97.88.15,1.55-1.25,1.43-2.09,1.24-5.96-1.35-5.87,2.34-5.69,6.46.19,4.13.04,8.28.04,12.42-.73,0-1.47,0-2.2,0,0-4.62-.17-9.24.05-13.85.17-3.47-.24-5.82-4.63-5.08-1,.17-3.2.92-3.08-1.12.11-1.75,2.16-.69,3.76-1h0Z"/>
  <path id="path1015" d="m72.67,183.92c-.29,2,.68,3.76-1.14,5.36-2.01-2.36-.85-5.06-1.01-7.45-.21-2.98.34-6.06-.16-8.97-.68-3.95-5.18.11-6.72-2.63.15-.35.3-.88.39-.87,6.44.85,6.94-2.83,6.55-7.9-.29-3.72-.61-7.56.33-11.26,2.19-.15,1.73,1.35,1.75,2.38.06,3.33.07,6.66.01,9.99-.06,3.61-.8,7.65,5.16,6.44.81-.16,1.76.07,1.62,1.25-.09.8-.87,1.01-1.5.88-5.7-1.16-5.56,2.45-5.3,6.31.14,1.99.02,3.99.02,6.47Z"/>
</svg>